<svg xmlns="http://www.w3.org/2000/svg" width="184" height="216" viewBox="0 0 184.3 216"><style>.a{fill:#FFF;}.b{fill:#003876;}</style><pattern x="-268.8" y="396" width="69" height="69" patternUnits="userSpaceOnUse" viewBox="2.1 -70.9 69 69"><polygon points="71.1 -1.9 2.1 -1.9 2.1 -70.9 71.1 -70.9 " fill="none"/><polygon points="71.1 -1.9 2.1 -1.9 2.1 -70.9 71.1 -70.9 " fill="#F6BB60"/><path d="M61.8-71.7c0 0.1 0 0.1 0 0.2 -0.1 0.1-0.1 0.1-0.2 0.1 0 0.1-0.1 0.3-0.1 0.4 -0.2 0.1 0 0.2 0 0.4 0 0.1 0 0.1 0 0.2 0 0.1 0 0.3 0.1 0.4 0.1 0.2 0.3 0.4 0.4 0.5 0.2 0.1 0.4 0.6 0.6 0.6 0.2 0 0.4-0.1 0.5-0.1 0.2 0 0.4 0 0.6-0.1 0.2-0.1 0.1-0.3 0.3-0.4 0.1-0.1 0.3 0 0.4-0.1 0.2-0.1 0.3-0.3 0.4-0.5 0-0.1 0-0.1 0-0.2 0-0.1 0.1-0.2 0.1-0.3 0-0.1-0.1-0.1-0.1-0.2 0-0.1 0-0.2 0-0.3 0-0.2 0-0.4-0.1-0.5 -0.4-0.7-1.2-0.9-2-0.8 -0.2 0-0.3 0.1-0.4 0.2 -0.2 0.1-0.1 0.2-0.3 0.2 -0.1 0-0.2 0.1-0.2 0.2 0 0.1 0 0.1 0 0.2 0 0 0 0 0 0" class="a"/><path d="M54.1-71.7c0 0.1 0 0.1 0 0.2 -0.1 0.1-0.1 0.1-0.2 0.1 0 0.1-0.1 0.3-0.1 0.4 -0.2 0.1 0 0.2 0 0.4 0 0.1 0 0.1 0 0.2 0 0.1 0 0.3 0.1 0.4 0.1 0.2 0.3 0.4 0.4 0.5 0.2 0.1 0.4 0.6 0.6 0.6 0.2 0 0.4-0.1 0.5-0.1 0.2 0 0.4 0 0.6-0.1 0.2-0.1 0.1-0.3 0.3-0.4 0.1-0.1 0.3 0 0.4-0.1 0.2-0.1 0.3-0.3 0.4-0.5 0-0.1 0-0.1 0-0.2 0-0.1 0.1-0.2 0.1-0.3 0-0.1-0.1-0.1-0.1-0.2 0-0.1 0-0.2 0-0.3 0-0.2 0-0.4-0.1-0.5 -0.4-0.7-1.2-0.9-2-0.8 -0.2 0-0.3 0.1-0.4 0.2 -0.2 0.1-0.1 0.2-0.3 0.2 -0.1 0-0.2 0.1-0.2 0.2 0 0.1 0 0.1 0 0.2 0 0 0 0 0 0" class="a"/><path d="M46.4-71.7c0 0.1 0 0.1 0 0.2 -0.1 0.1-0.1 0.1-0.2 0.1 0 0.1-0.1 0.3-0.1 0.4 -0.2 0.1 0 0.2 0 0.4 0 0.1 0 0.1 0 0.2 0 0.1 0 0.3 0.1 0.4 0.1 0.2 0.3 0.4 0.4 0.5 0.2 0.1 0.4 0.6 0.6 0.6 0.2 0 0.4-0.1 0.5-0.1 0.2 0 0.4 0 0.6-0.1 0.2-0.1 0.1-0.3 0.3-0.4 0.1-0.1 0.3 0 0.4-0.1 0.2-0.1 0.3-0.3 0.4-0.5 0-0.1 0-0.1 0-0.2 0-0.1 0.1-0.2 0.1-0.3 0-0.1-0.1-0.1-0.1-0.2 0-0.1 0-0.2 0-0.3 0-0.2 0-0.4-0.1-0.5 -0.4-0.7-1.2-0.9-2-0.8 -0.2 0-0.3 0.1-0.4 0.2 -0.2 0.1-0.1 0.2-0.3 0.2 -0.1 0-0.2 0.1-0.2 0.2 0 0.1 0 0.1 0 0.2 0 0 0 0 0 0" class="a"/><path d="M38.8-71.7c0 0.1 0 0.1 0 0.2 -0.1 0.1-0.1 0.1-0.2 0.1 0 0.1-0.1 0.3-0.1 0.4 -0.2 0.1 0 0.2 0 0.4 0 0.1 0 0.1 0 0.2 0 0.1 0 0.3 0.1 0.4 0.1 0.2 0.3 0.4 0.4 0.5 0.2 0.1 0.4 0.6 0.6 0.6 0.2 0 0.4-0.1 0.5-0.1 0.2 0 0.4 0 0.6-0.1 0.2-0.1 0.1-0.3 0.3-0.4 0.1-0.1 0.3 0 0.4-0.1 0.2-0.1 0.3-0.3 0.4-0.5 0-0.1 0-0.1 0-0.2 0-0.1 0.1-0.2 0.1-0.3 0-0.1-0.1-0.1-0.1-0.2 0-0.1 0-0.2 0-0.3 0-0.2 0-0.4-0.1-0.5 -0.4-0.7-1.2-0.9-2-0.8 -0.2 0-0.3 0.1-0.4 0.2 -0.2 0.1-0.1 0.2-0.3 0.2 -0.1 0-0.2 0.1-0.2 0.2 0 0.1 0 0.1 0 0.2 0 0 0 0 0 0" class="a"/><path d="M31.1-71.7c0 0.1 0 0.1 0 0.2 -0.1 0.1-0.1 0.1-0.2 0.1 0 0.1-0.1 0.3-0.1 0.4 -0.2 0.1 0 0.2 0 0.4 0 0.1 0 0.1 0 0.2 0 0.1 0 0.3 0.1 0.4 0.1 0.2 0.3 0.4 0.4 0.5 0.2 0.1 0.4 0.6 0.6 0.6 0.2 0 0.4-0.1 0.5-0.1 0.2 0 0.4 0 0.6-0.1 0.2-0.1 0.1-0.3 0.3-0.4 0.1-0.1 0.3 0 0.4-0.1 0.2-0.1 0.3-0.3 0.4-0.5 0-0.1 0-0.1 0-0.2 0-0.1 0.1-0.2 0.1-0.3 0-0.1-0.1-0.1-0.1-0.2 0-0.1 0-0.2 0-0.3 0-0.2 0-0.4-0.1-0.5 -0.4-0.7-1.2-0.9-2-0.8 -0.2 0-0.3 0.1-0.4 0.2 -0.2 0.1-0.1 0.2-0.3 0.2 -0.1 0-0.2 0.1-0.2 0.2 0 0.1 0 0.1 0 0.2 0 0 0 0 0 0" class="a"/><path d="M23.4-71.7c0 0.1 0 0.1 0 0.2 -0.1 0.1-0.1 0.1-0.2 0.1 0 0.1-0.1 0.3-0.1 0.4 -0.2 0.1 0 0.2 0 0.4 0 0.1 0 0.1 0 0.2 0 0.1 0 0.3 0.1 0.4 0.1 0.2 0.3 0.4 0.4 0.5 0.2 0.1 0.4 0.6 0.6 0.6 0.2 0 0.4-0.1 0.5-0.1 0.2 0 0.4 0 0.6-0.1 0.2-0.1 0.1-0.3 0.3-0.4 0.1-0.1 0.3 0 0.4-0.1 0.2-0.1 0.3-0.3 0.4-0.5 0-0.1 0-0.1 0-0.2 0-0.1 0.1-0.2 0.1-0.3 0-0.1-0.1-0.1-0.1-0.2 0-0.1 0-0.2 0-0.3 0-0.2 0-0.4-0.1-0.5 -0.4-0.7-1.2-0.9-2-0.8 -0.2 0-0.3 0.1-0.4 0.2 -0.2 0.1-0.1 0.2-0.3 0.2 -0.1 0-0.2 0.1-0.2 0.2 0 0.1 0 0.1 0 0.2 0 0 0 0 0 0" class="a"/><path d="M15.8-71.7c0 0.1 0 0.1 0 0.2 -0.1 0.1-0.1 0.1-0.2 0.1 0 0.1-0.1 0.3-0.1 0.4 -0.2 0.1 0 0.2 0 0.4 0 0.1 0 0.1 0 0.2 0 0.1 0 0.3 0.1 0.4 0.1 0.2 0.3 0.4 0.4 0.5 0.2 0.1 0.4 0.6 0.6 0.6 0.2 0 0.4-0.1 0.5-0.1 0.2 0 0.4 0 0.6-0.1 0.2-0.1 0.1-0.3 0.3-0.4 0.1-0.1 0.3 0 0.4-0.1 0.2-0.1 0.3-0.3 0.4-0.5 0-0.1 0-0.1 0-0.2 0-0.1 0.1-0.2 0.1-0.3 0-0.1-0.1-0.1-0.1-0.2 0-0.1 0-0.2 0-0.3 0-0.2 0-0.4-0.1-0.5 -0.4-0.7-1.2-0.9-2-0.8 -0.2 0-0.3 0.1-0.4 0.2 -0.2 0.1-0.1 0.2-0.3 0.2 -0.1 0-0.2 0.1-0.2 0.2 0 0.1 0 0.1 0 0.2 0 0 0 0 0 0" class="a"/><path d="M8.1-71.7c0 0.1 0 0.1 0 0.2 -0.1 0.1-0.1 0.1-0.2 0.1 0 0.1-0.1 0.3-0.1 0.4 -0.2 0.1 0 0.2 0 0.4 0 0.1 0 0.1 0 0.2 0 0.1 0 0.3 0.1 0.4 0.1 0.2 0.3 0.4 0.4 0.5 0.2 0.1 0.4 0.6 0.6 0.6 0.2 0 0.4-0.1 0.5-0.1 0.2 0 0.4 0 0.6-0.1 0.2-0.1 0.1-0.3 0.3-0.4 0.1-0.1 0.3 0 0.4-0.1 0.2-0.1 0.3-0.3 0.4-0.5 0-0.1 0-0.1 0-0.2 0-0.1 0.1-0.2 0.1-0.3 0-0.1-0.1-0.1-0.1-0.2 0-0.1 0-0.2 0-0.3 0-0.2 0-0.4-0.1-0.5 -0.4-0.7-1.2-0.9-2-0.8 -0.2 0-0.3 0.1-0.4 0.2 -0.2 0.1-0.1 0.2-0.3 0.2 -0.1 0-0.2 0.1-0.2 0.2 0 0.1 0 0.1 0 0.2 0 0 0 0 0 0" class="a"/><path d="M0.4-71.7c0 0.1 0 0.1 0 0.2C0.4-71.4 0.3-71.4 0.2-71.3c-0.1 0.1-0.1 0.3-0.1 0.4 -0.2 0.1 0 0.2 0 0.4 0 0.1 0 0.1 0 0.2 0 0.1 0 0.3 0.1 0.4 0.1 0.2 0.3 0.4 0.4 0.5 0.2 0.1 0.4 0.6 0.6 0.6 0.2 0 0.4-0.1 0.5-0.1 0.2 0 0.4 0 0.6-0.1 0.2-0.1 0.1-0.3 0.3-0.4 0.1-0.1 0.3 0 0.4-0.1 0.2-0.1 0.3-0.3 0.4-0.5 0-0.1 0-0.1 0-0.2 0-0.1 0.1-0.2 0.1-0.3 0-0.1-0.1-0.1-0.1-0.2 0-0.1 0-0.2 0-0.3 0-0.2 0-0.4-0.1-0.5 -0.4-0.7-1.2-0.9-2-0.8 -0.2 0-0.3 0.1-0.4 0.2 -0.2 0.1-0.1 0.2-0.3 0.2 -0.1 0-0.2 0.1-0.2 0.2 0 0.1 0 0.1 0 0.2 0 0 0 0 0 0" class="a"/><path d="M69.4-71.7c0 0.1 0 0.1 0 0.2 -0.1 0.1-0.1 0.1-0.2 0.1 -0.1 0.1-0.1 0.3-0.1 0.4 -0.2 0.1 0 0.2 0 0.4 0 0.1 0 0.1 0 0.2 0 0.1 0 0.3 0.1 0.4 0.1 0.2 0.3 0.4 0.4 0.5 0.2 0.1 0.4 0.6 0.6 0.6 0.2 0 0.4-0.1 0.5-0.1 0.2 0 0.4 0 0.6-0.1 0.2-0.1 0.1-0.3 0.3-0.4 0.1-0.1 0.3 0 0.4-0.1 0.2-0.1 0.3-0.3 0.4-0.5 0-0.1 0-0.1 0-0.2 0-0.1 0.1-0.2 0.1-0.3 0-0.1-0.1-0.1-0.1-0.2 0-0.1 0-0.2 0-0.3 0-0.2 0-0.4-0.1-0.5 -0.4-0.7-1.2-0.9-2-0.8 -0.2 0-0.3 0.1-0.4 0.2 -0.2 0.1-0.1 0.2-0.3 0.2 -0.1 0-0.2 0.1-0.2 0.2 0 0.1 0 0.1 0 0.2 0 0 0 0 0 0" class="a"/><path d="M0.5-71.7c0 0.1 0 0.1 0 0.2 -0.1 0.1-0.1 0.1-0.2 0.1 -0.1 0.1-0.1 0.3-0.1 0.4 -0.2 0.1 0 0.2 0 0.4 0 0.1 0 0.1 0 0.2 0 0.1 0 0.3 0.1 0.4 0.1 0.2 0.3 0.4 0.4 0.5 0.2 0.1 0.4 0.6 0.6 0.6 0.2 0 0.4-0.1 0.5-0.1 0.2 0 0.4 0 0.6-0.1 0.2-0.1 0.1-0.3 0.3-0.4 0.1-0.1 0.3 0 0.4-0.1 0.2-0.1 0.3-0.3 0.4-0.5 0-0.1 0-0.1 0-0.2 0-0.1 0.1-0.2 0.1-0.3 0-0.1-0.1-0.1-0.1-0.2 0-0.1 0-0.2 0-0.3 0-0.2 0-0.4-0.1-0.5 -0.4-0.7-1.2-0.9-2-0.8 -0.2 0-0.3 0.1-0.4 0.2 -0.2 0.1-0.1 0.2-0.3 0.2 -0.1 0-0.2 0.1-0.2 0.2C0.5-71.7 0.5-71.7 0.5-71.6c0 0 0 0 0 0" class="a"/><path d="M69.4-64c0 0.1 0 0.1 0 0.2 -0.1 0.1-0.1 0.1-0.2 0.1 0 0.1-0.1 0.3-0.1 0.4 -0.2 0.1 0 0.2 0 0.4 0 0.1 0 0.1 0 0.2 0 0.1 0 0.3 0.1 0.4 0.1 0.2 0.3 0.4 0.4 0.5 0.2 0.1 0.4 0.6 0.6 0.6 0.2 0 0.4-0.1 0.5-0.1 0.2 0 0.4 0 0.6-0.1 0.2-0.1 0.1-0.3 0.3-0.4 0.1-0.1 0.3 0 0.4-0.1 0.2-0.1 0.3-0.3 0.4-0.5 0-0.1 0-0.1 0-0.2 0-0.1 0.1-0.2 0.1-0.3 0-0.1-0.1-0.1-0.1-0.2 0-0.1 0-0.2 0-0.3 0-0.2 0-0.4-0.1-0.5 -0.4-0.7-1.2-0.9-2-0.8 -0.2 0-0.3 0.1-0.4 0.2 -0.2 0.1-0.1 0.2-0.3 0.2 -0.1 0-0.2 0.1-0.2 0.2 0 0.1 0 0.1 0 0.2 0 0 0 0 0 0" class="a"/><path d="M61.8-64c0 0.1 0 0.1 0 0.2 -0.1 0.1-0.1 0.1-0.2 0.1 0 0.1-0.1 0.3-0.1 0.4 -0.2 0.1 0 0.2 0 0.4 0 0.1 0 0.1 0 0.2 0 0.1 0 0.3 0.1 0.4 0.1 0.2 0.3 0.4 0.4 0.5 0.2 0.1 0.4 0.6 0.6 0.6 0.2 0 0.4-0.1 0.5-0.1 0.2 0 0.4 0 0.6-0.1 0.2-0.1 0.1-0.3 0.3-0.4 0.1-0.1 0.3 0 0.4-0.1 0.2-0.1 0.3-0.3 0.4-0.5 0-0.1 0-0.1 0-0.2 0-0.1 0.1-0.2 0.1-0.3 0-0.1-0.1-0.1-0.1-0.2 0-0.1 0-0.2 0-0.3 0-0.2 0-0.4-0.1-0.5 -0.4-0.7-1.2-0.9-2-0.8 -0.2 0-0.3 0.1-0.4 0.2 -0.2 0.1-0.1 0.2-0.3 0.2 -0.1 0-0.2 0.1-0.2 0.2 0 0.1 0 0.1 0 0.2 0 0 0 0 0 0" class="a"/><path d="M54.1-64c0 0.1 0 0.1 0 0.2 -0.1 0.1-0.1 0.1-0.2 0.1 0 0.1-0.1 0.3-0.1 0.4 -0.2 0.1 0 0.2 0 0.4 0 0.1 0 0.1 0 0.2 0 0.1 0 0.3 0.1 0.4 0.1 0.2 0.3 0.4 0.4 0.5 0.2 0.1 0.4 0.6 0.6 0.6 0.2 0 0.4-0.1 0.5-0.1 0.2 0 0.4 0 0.6-0.1 0.2-0.1 0.1-0.3 0.3-0.4 0.1-0.1 0.3 0 0.4-0.1 0.2-0.1 0.3-0.3 0.4-0.5 0-0.1 0-0.1 0-0.2 0-0.1 0.1-0.2 0.1-0.3 0-0.1-0.1-0.1-0.1-0.2 0-0.1 0-0.2 0-0.3 0-0.2 0-0.4-0.1-0.5 -0.4-0.7-1.2-0.9-2-0.8 -0.2 0-0.3 0.1-0.4 0.2 -0.2 0.1-0.1 0.2-0.3 0.2 -0.1 0-0.2 0.1-0.2 0.2 0 0.1 0 0.1 0 0.2 0 0 0 0 0 0" class="a"/><path d="M46.5-64c0 0.1 0 0.1 0 0.2 -0.1 0.1-0.1 0.1-0.2 0.1 0 0.1-0.1 0.3-0.1 0.4 -0.2 0.1 0 0.2 0 0.4 0 0.1 0 0.1 0 0.2 0 0.1 0 0.3 0.1 0.4 0.1 0.2 0.3 0.4 0.4 0.5 0.2 0.1 0.4 0.6 0.6 0.6 0.2 0 0.4-0.1 0.5-0.1 0.2 0 0.4 0 0.6-0.1 0.2-0.1 0.1-0.3 0.3-0.4 0.1-0.1 0.3 0 0.4-0.1 0.2-0.1 0.3-0.3 0.4-0.5 0-0.1 0-0.1 0-0.2 0-0.1 0.1-0.2 0.1-0.3 0-0.1-0.1-0.1-0.1-0.2 0-0.1 0-0.2 0-0.3 0-0.2 0-0.4-0.1-0.5 -0.4-0.7-1.2-0.9-2-0.8 -0.2 0-0.3 0.1-0.4 0.2 -0.2 0.1-0.1 0.2-0.3 0.2 -0.1 0-0.2 0.1-0.2 0.2 0 0.1 0 0.1 0 0.2 0 0 0 0 0 0" class="a"/><path d="M38.8-64c0 0.1 0 0.1 0 0.2 -0.1 0.1-0.1 0.1-0.2 0.1 0 0.1-0.1 0.3-0.1 0.4 -0.2 0.1 0 0.2 0 0.4 0 0.1 0 0.1 0 0.2 0 0.1 0 0.3 0.1 0.4 0.1 0.2 0.3 0.4 0.4 0.5 0.2 0.1 0.4 0.6 0.6 0.6 0.2 0 0.4-0.1 0.5-0.1 0.2 0 0.4 0 0.6-0.1 0.2-0.1 0.1-0.3 0.3-0.4 0.1-0.1 0.3 0 0.4-0.1 0.2-0.1 0.3-0.3 0.4-0.5 0-0.1 0-0.1 0-0.2 0-0.1 0.1-0.2 0.1-0.3 0-0.1-0.1-0.1-0.1-0.2 0-0.1 0-0.2 0-0.3 0-0.2 0-0.4-0.1-0.5 -0.4-0.7-1.2-0.9-2-0.8 -0.2 0-0.3 0.1-0.4 0.2 -0.2 0.1-0.1 0.2-0.3 0.2 -0.1 0-0.2 0.1-0.2 0.2 0 0.1 0 0.1 0 0.2 0 0 0 0 0 0" class="a"/><path d="M31.1-64c0 0.1 0 0.1 0 0.2 -0.1 0.1-0.1 0.1-0.2 0.1 0 0.1-0.1 0.3-0.1 0.4 -0.2 0.1 0 0.2 0 0.4 0 0.1 0 0.1 0 0.2 0 0.1 0 0.3 0.1 0.4 0.1 0.2 0.3 0.4 0.4 0.5 0.2 0.1 0.4 0.6 0.6 0.6 0.2 0 0.4-0.1 0.5-0.1 0.2 0 0.4 0 0.6-0.1 0.2-0.1 0.1-0.3 0.3-0.4 0.1-0.1 0.3 0 0.4-0.1 0.2-0.1 0.3-0.3 0.4-0.5 0-0.1 0-0.1 0-0.2 0-0.1 0.1-0.2 0.1-0.3 0-0.1-0.1-0.1-0.1-0.2 0-0.1 0-0.2 0-0.3 0-0.2 0-0.4-0.1-0.5 -0.4-0.7-1.2-0.9-2-0.8 -0.2 0-0.3 0.1-0.4 0.2 -0.2 0.1-0.1 0.2-0.3 0.2 -0.1 0-0.2 0.1-0.2 0.2 0 0.1 0 0.1 0 0.2 0 0 0 0 0 0" class="a"/><path d="M23.5-64c0 0.1 0 0.1 0 0.2 -0.1 0.1-0.1 0.1-0.2 0.1 0 0.1-0.1 0.3-0.1 0.4 -0.2 0.1 0 0.2 0 0.4 0 0.1 0 0.1 0 0.2 0 0.1 0 0.3 0.1 0.4 0.1 0.2 0.3 0.4 0.4 0.5 0.2 0.1 0.4 0.6 0.6 0.6 0.2 0 0.4-0.1 0.5-0.1 0.2 0 0.4 0 0.6-0.1 0.2-0.1 0.1-0.3 0.3-0.4 0.1-0.1 0.3 0 0.4-0.1 0.2-0.1 0.3-0.3 0.4-0.5 0-0.1 0-0.1 0-0.2 0-0.1 0.1-0.2 0.1-0.3 0-0.1-0.1-0.1-0.1-0.2 0-0.1 0-0.2 0-0.3 0-0.2 0-0.4-0.1-0.5 -0.4-0.7-1.2-0.9-2-0.8 -0.2 0-0.3 0.1-0.4 0.2 -0.2 0.1-0.1 0.2-0.3 0.2 -0.1 0-0.2 0.1-0.2 0.2 0 0.1 0 0.1 0 0.2 0 0 0 0 0 0" class="a"/><path d="M15.8-64c0 0.1 0 0.1 0 0.2 -0.1 0.1-0.1 0.1-0.2 0.1 0 0.1-0.1 0.3-0.1 0.4 -0.2 0.1 0 0.2 0 0.4 0 0.1 0 0.1 0 0.2 0 0.1 0 0.3 0.1 0.4 0.1 0.2 0.3 0.4 0.4 0.5 0.2 0.1 0.4 0.6 0.6 0.6 0.2 0 0.4-0.1 0.5-0.1 0.2 0 0.4 0 0.6-0.1 0.2-0.1 0.1-0.3 0.3-0.4 0.1-0.1 0.3 0 0.4-0.1 0.2-0.1 0.3-0.3 0.4-0.5 0-0.1 0-0.1 0-0.2 0-0.1 0.1-0.2 0.1-0.3 0-0.1-0.1-0.1-0.1-0.2 0-0.1 0-0.2 0-0.3 0-0.2 0-0.4-0.1-0.5 -0.4-0.7-1.2-0.9-2-0.8 -0.2 0-0.3 0.1-0.4 0.2 -0.2 0.1-0.1 0.2-0.3 0.2 -0.1 0-0.2 0.1-0.2 0.2 0 0.1 0 0.1 0 0.2 0 0 0 0 0 0" class="a"/><path d="M8.2-64c0 0.1 0 0.1 0 0.2 -0.1 0.1-0.1 0.1-0.2 0.1 0 0.1-0.1 0.3-0.1 0.4 -0.2 0.1 0 0.2 0 0.4 0 0.1 0 0.1 0 0.2 0 0.1 0 0.3 0.1 0.4 0.1 0.2 0.3 0.4 0.4 0.5 0.2 0.1 0.4 0.6 0.6 0.6 0.2 0 0.4-0.1 0.5-0.1 0.2 0 0.4 0 0.6-0.1 0.2-0.1 0.1-0.3 0.3-0.4 0.1-0.1 0.3 0 0.4-0.1 0.2-0.1 0.3-0.3 0.4-0.5 0-0.1 0-0.1 0-0.2 0-0.1 0.1-0.2 0.1-0.3 0-0.1-0.1-0.1-0.1-0.2 0-0.1 0-0.2 0-0.3 0-0.2 0-0.4-0.1-0.5 -0.4-0.7-1.2-0.9-2-0.8 -0.2 0-0.3 0.1-0.4 0.2 -0.2 0.1-0.1 0.2-0.3 0.2 -0.1 0-0.2 0.1-0.2 0.2 0 0.1 0 0.1 0 0.2 0 0 0 0 0 0" class="a"/><path d="M0.5-64c0 0.1 0 0.1 0 0.2 -0.1 0.1-0.1 0.1-0.2 0.1 0 0.1-0.1 0.3-0.1 0.4 -0.2 0.1 0 0.2 0 0.4 0 0.1 0 0.1 0 0.2 0 0.1 0 0.3 0.1 0.4 0.1 0.2 0.3 0.4 0.4 0.5 0.2 0.1 0.4 0.6 0.6 0.6 0.2 0 0.4-0.1 0.5-0.1C2-61.4 2.2-61.4 2.4-61.5c0.2-0.1 0.1-0.3 0.3-0.4 0.1-0.1 0.3 0 0.4-0.1 0.2-0.1 0.3-0.3 0.4-0.5 0-0.1 0-0.1 0-0.2 0-0.1 0.1-0.2 0.1-0.3 0-0.1-0.1-0.1-0.1-0.2 0-0.1 0-0.2 0-0.3 0-0.2 0-0.4-0.1-0.5 -0.4-0.7-1.2-0.9-2-0.8 -0.2 0-0.3 0.1-0.4 0.2 -0.2 0.1-0.1 0.2-0.3 0.2 -0.1 0-0.2 0.1-0.2 0.2 0 0.1 0 0.1 0 0.2 0 0 0 0 0 0" class="a"/><path d="M69.4-56.3c0 0.1 0 0.1 0 0.2 -0.1 0.1-0.1 0.1-0.2 0.1 0 0.1-0.1 0.3-0.1 0.4 -0.2 0.1 0 0.2 0 0.4 0 0.1 0 0.1 0 0.2 0 0.1 0 0.3 0.1 0.4 0.1 0.2 0.3 0.4 0.4 0.5 0.2 0.1 0.4 0.6 0.6 0.6 0.2 0 0.4-0.1 0.5-0.1 0.2 0 0.4 0 0.6-0.1 0.2-0.1 0.1-0.3 0.3-0.4 0.1-0.1 0.3 0 0.4-0.1 0.2-0.1 0.3-0.3 0.4-0.5 0-0.1 0-0.1 0-0.2 0-0.1 0.1-0.2 0.1-0.3 0-0.1-0.1-0.1-0.1-0.2 0-0.1 0-0.2 0-0.3 0-0.2 0-0.4-0.1-0.5 -0.4-0.7-1.2-0.9-2-0.8 -0.2 0-0.3 0.1-0.4 0.2 -0.2 0.1-0.1 0.2-0.3 0.2 -0.1 0-0.2 0.1-0.2 0.2 0 0.1 0 0.1 0 0.2 0 0 0 0 0 0" class="a"/><path d="M61.8-56.3c0 0.1 0 0.1 0 0.2 -0.1 0.1-0.1 0.1-0.2 0.1 0 0.1-0.1 0.3-0.1 0.4 -0.2 0.1 0 0.2 0 0.4 0 0.1 0 0.1 0 0.2 0 0.1 0 0.3 0.1 0.4 0.1 0.2 0.3 0.4 0.4 0.5 0.2 0.1 0.4 0.6 0.6 0.6 0.2 0 0.4-0.1 0.5-0.1 0.2 0 0.4 0 0.6-0.1 0.2-0.1 0.1-0.3 0.3-0.4 0.1-0.1 0.3 0 0.4-0.1 0.2-0.1 0.3-0.3 0.4-0.5 0-0.1 0-0.1 0-0.2 0-0.1 0.1-0.2 0.1-0.3 0-0.1-0.1-0.1-0.1-0.2 0-0.1 0-0.2 0-0.3 0-0.2 0-0.4-0.1-0.5 -0.4-0.7-1.2-0.9-2-0.8 -0.2 0-0.3 0.1-0.4 0.2 -0.2 0.1-0.1 0.2-0.3 0.2 -0.1 0-0.2 0.1-0.2 0.2 0 0.1 0 0.1 0 0.2 0 0 0 0 0 0" class="a"/><path d="M54.1-56.3c0 0.1 0 0.1 0 0.2 -0.1 0.1-0.1 0.1-0.2 0.1 0 0.1-0.1 0.3-0.1 0.4 -0.2 0.1 0 0.2 0 0.4 0 0.1 0 0.1 0 0.2 0 0.1 0 0.3 0.1 0.4 0.1 0.2 0.3 0.4 0.4 0.5 0.2 0.1 0.4 0.6 0.6 0.6 0.2 0 0.4-0.1 0.5-0.1 0.2 0 0.4 0 0.6-0.1 0.2-0.1 0.1-0.3 0.3-0.4 0.1-0.1 0.3 0 0.4-0.1 0.2-0.1 0.3-0.3 0.4-0.5 0-0.1 0-0.1 0-0.2 0-0.1 0.1-0.2 0.1-0.3 0-0.1-0.1-0.1-0.1-0.2 0-0.1 0-0.2 0-0.3 0-0.2 0-0.4-0.1-0.5 -0.4-0.7-1.2-0.9-2-0.8 -0.2 0-0.3 0.1-0.4 0.2 -0.2 0.1-0.1 0.2-0.3 0.2 -0.1 0-0.2 0.1-0.2 0.2 0 0.1 0 0.1 0 0.2 0 0 0 0 0 0" class="a"/><path d="M46.5-56.3c0 0.1 0 0.1 0 0.2 -0.1 0.1-0.1 0.1-0.2 0.1 0 0.1-0.1 0.3-0.1 0.4 -0.2 0.1 0 0.2 0 0.4 0 0.1 0 0.1 0 0.2 0 0.1 0 0.3 0.1 0.4 0.1 0.2 0.3 0.4 0.4 0.5 0.2 0.1 0.4 0.6 0.6 0.6 0.2 0 0.4-0.1 0.5-0.1 0.2 0 0.4 0 0.6-0.1 0.2-0.1 0.1-0.3 0.3-0.4 0.1-0.1 0.3 0 0.4-0.1 0.2-0.1 0.3-0.3 0.4-0.5 0-0.1 0-0.1 0-0.2 0-0.1 0.1-0.2 0.1-0.3 0-0.1-0.1-0.1-0.1-0.2 0-0.1 0-0.2 0-0.3 0-0.2 0-0.4-0.1-0.5 -0.4-0.7-1.2-0.9-2-0.8 -0.2 0-0.3 0.1-0.4 0.2 -0.2 0.1-0.1 0.2-0.3 0.2 -0.1 0-0.2 0.1-0.2 0.2 0 0.1 0 0.1 0 0.2 0 0 0 0 0 0" class="a"/><path d="M38.8-56.3c0 0.1 0 0.1 0 0.2 -0.1 0.1-0.1 0.1-0.2 0.1 0 0.1-0.1 0.3-0.1 0.4 -0.2 0.1 0 0.2 0 0.4 0 0.1 0 0.1 0 0.2 0 0.1 0 0.3 0.1 0.4 0.1 0.2 0.3 0.4 0.4 0.5 0.2 0.1 0.4 0.6 0.6 0.6 0.2 0 0.4-0.1 0.5-0.1 0.2 0 0.4 0 0.6-0.1 0.2-0.1 0.1-0.3 0.3-0.4 0.1-0.1 0.3 0 0.4-0.1 0.2-0.1 0.3-0.3 0.4-0.5 0-0.1 0-0.1 0-0.2 0-0.1 0.1-0.2 0.1-0.3 0-0.1-0.1-0.1-0.1-0.2 0-0.1 0-0.2 0-0.3 0-0.2 0-0.4-0.1-0.5 -0.4-0.7-1.2-0.9-2-0.8 -0.2 0-0.3 0.1-0.4 0.2 -0.2 0.1-0.1 0.2-0.3 0.2 -0.1 0-0.2 0.1-0.2 0.2 0 0.1 0 0.1 0 0.2 0 0 0 0 0 0" class="a"/><path d="M31.1-56.3c0 0.1 0 0.1 0 0.2 -0.1 0.1-0.1 0.1-0.2 0.1 0 0.1-0.1 0.3-0.1 0.4 -0.2 0.1 0 0.2 0 0.4 0 0.1 0 0.1 0 0.2 0 0.1 0 0.3 0.1 0.4 0.1 0.2 0.3 0.4 0.4 0.5 0.2 0.1 0.4 0.6 0.6 0.6 0.2 0 0.4-0.1 0.5-0.1 0.2 0 0.4 0 0.6-0.1 0.2-0.1 0.1-0.3 0.3-0.4 0.1-0.1 0.3 0 0.4-0.1 0.2-0.1 0.3-0.3 0.4-0.5 0-0.1 0-0.1 0-0.2 0-0.1 0.1-0.2 0.1-0.3 0-0.1-0.1-0.1-0.1-0.2 0-0.1 0-0.2 0-0.3 0-0.2 0-0.4-0.1-0.5 -0.4-0.7-1.2-0.9-2-0.8 -0.2 0-0.3 0.1-0.4 0.2 -0.2 0.1-0.1 0.2-0.3 0.2 -0.1 0-0.2 0.1-0.2 0.2 0 0.1 0 0.1 0 0.2 0 0 0 0 0 0" class="a"/><path d="M23.5-56.3c0 0.1 0 0.1 0 0.2 -0.1 0.1-0.1 0.1-0.2 0.1 0 0.1-0.1 0.3-0.1 0.4 -0.2 0.1 0 0.2 0 0.4 0 0.1 0 0.1 0 0.2 0 0.1 0 0.3 0.1 0.4 0.1 0.2 0.3 0.4 0.4 0.5 0.2 0.1 0.4 0.6 0.6 0.6 0.2 0 0.4-0.1 0.5-0.1 0.2 0 0.4 0 0.6-0.1 0.2-0.1 0.1-0.3 0.3-0.4 0.1-0.1 0.3 0 0.4-0.1 0.2-0.1 0.3-0.3 0.4-0.5 0-0.1 0-0.1 0-0.2 0-0.1 0.1-0.2 0.1-0.3 0-0.1-0.1-0.1-0.1-0.2 0-0.1 0-0.2 0-0.3 0-0.2 0-0.4-0.1-0.5 -0.4-0.7-1.2-0.9-2-0.8 -0.2 0-0.3 0.1-0.4 0.2 -0.2 0.1-0.1 0.2-0.3 0.2 -0.1 0-0.2 0.1-0.2 0.2 0 0.1 0 0.1 0 0.2 0 0 0 0 0 0" class="a"/><path d="M15.8-56.3c0 0.1 0 0.1 0 0.2 -0.1 0.1-0.1 0.1-0.2 0.1 0 0.1-0.1 0.3-0.1 0.4 -0.2 0.1 0 0.2 0 0.4 0 0.1 0 0.1 0 0.2 0 0.1 0 0.3 0.1 0.4 0.1 0.2 0.3 0.4 0.4 0.5 0.2 0.1 0.4 0.6 0.6 0.6 0.2 0 0.4-0.1 0.5-0.1 0.2 0 0.4 0 0.6-0.1 0.2-0.1 0.1-0.3 0.3-0.4 0.1-0.1 0.3 0 0.4-0.1 0.2-0.1 0.3-0.3 0.4-0.5 0-0.1 0-0.1 0-0.2 0-0.1 0.1-0.2 0.1-0.3 0-0.1-0.1-0.1-0.1-0.2 0-0.1 0-0.2 0-0.3 0-0.2 0-0.4-0.1-0.5 -0.4-0.7-1.2-0.9-2-0.8 -0.2 0-0.3 0.1-0.4 0.2 -0.2 0.1-0.1 0.2-0.3 0.2 -0.1 0-0.2 0.1-0.2 0.2 0 0.1 0 0.1 0 0.2 0 0 0 0 0 0" class="a"/><path d="M8.2-56.3c0 0.1 0 0.1 0 0.2 -0.1 0.1-0.1 0.1-0.2 0.1 0 0.1-0.1 0.3-0.1 0.4 -0.2 0.1 0 0.2 0 0.4 0 0.1 0 0.1 0 0.2 0 0.1 0 0.3 0.1 0.4 0.1 0.2 0.3 0.4 0.4 0.5 0.2 0.1 0.4 0.6 0.6 0.6 0.2 0 0.4-0.1 0.5-0.1 0.2 0 0.4 0 0.6-0.1 0.2-0.1 0.1-0.3 0.3-0.4 0.1-0.1 0.3 0 0.4-0.1 0.2-0.1 0.3-0.3 0.4-0.5 0-0.1 0-0.1 0-0.2 0-0.1 0.1-0.2 0.1-0.3 0-0.1-0.1-0.1-0.1-0.2 0-0.1 0-0.2 0-0.3 0-0.2 0-0.4-0.1-0.5 -0.4-0.7-1.2-0.9-2-0.8 -0.2 0-0.3 0.1-0.4 0.2 -0.2 0.1-0.1 0.2-0.3 0.2 -0.1 0-0.2 0.1-0.2 0.2 0 0.1 0 0.1 0 0.2 0 0 0 0 0 0" class="a"/><path d="M0.5-56.3c0 0.1 0 0.1 0 0.2 -0.1 0.1-0.1 0.1-0.2 0.1 0 0.1-0.1 0.3-0.1 0.4 -0.2 0.1 0 0.2 0 0.4 0 0.1 0 0.1 0 0.2 0 0.1 0 0.3 0.1 0.4 0.1 0.2 0.3 0.4 0.4 0.5 0.2 0.1 0.4 0.6 0.6 0.6 0.2 0 0.4-0.1 0.5-0.1 0.2 0 0.4 0 0.6-0.1 0.2-0.1 0.1-0.3 0.3-0.4 0.1-0.1 0.3 0 0.4-0.1 0.2-0.1 0.3-0.3 0.4-0.5 0-0.1 0-0.1 0-0.2 0-0.1 0.1-0.2 0.1-0.3 0-0.1-0.1-0.1-0.1-0.2 0-0.1 0-0.2 0-0.3 0-0.2 0-0.4-0.1-0.5 -0.4-0.7-1.2-0.9-2-0.8 -0.2 0-0.3 0.1-0.4 0.2 -0.2 0.1-0.1 0.2-0.3 0.2 -0.1 0-0.2 0.1-0.2 0.2C0.5-56.4 0.5-56.4 0.5-56.3c0 0 0 0 0 0" class="a"/><path d="M69.4-48.7c0 0.1 0 0.1 0 0.2 -0.1 0.1-0.1 0.1-0.2 0.1 0 0.1-0.1 0.3-0.1 0.4 -0.2 0.1 0 0.2 0 0.4 0 0.1 0 0.1 0 0.2 0 0.1 0 0.3 0.1 0.4 0.1 0.2 0.3 0.4 0.4 0.5 0.2 0.1 0.4 0.6 0.6 0.6 0.2 0 0.4-0.1 0.5-0.1 0.2 0 0.4 0 0.6-0.1 0.2-0.1 0.1-0.3 0.3-0.4 0.1-0.1 0.3 0 0.4-0.1 0.2-0.1 0.3-0.3 0.4-0.5 0-0.1 0-0.1 0-0.2 0-0.1 0.1-0.2 0.1-0.3 0-0.1-0.1-0.1-0.1-0.2 0-0.1 0-0.2 0-0.3 0-0.2 0-0.4-0.1-0.5 -0.4-0.7-1.2-0.9-2-0.8 -0.2 0-0.3 0.1-0.4 0.2 -0.2 0.1-0.1 0.2-0.3 0.2 -0.1 0-0.2 0.1-0.2 0.2 0 0.1 0 0.1 0 0.2 0 0 0 0 0 0" class="a"/><path d="M61.8-48.7c0 0.1 0 0.1 0 0.2 -0.1 0.1-0.1 0.1-0.2 0.1 0 0.1-0.1 0.3-0.1 0.4 -0.2 0.1 0 0.2 0 0.4 0 0.1 0 0.1 0 0.2 0 0.1 0 0.3 0.1 0.4 0.1 0.2 0.3 0.4 0.4 0.5 0.2 0.1 0.4 0.6 0.6 0.6 0.2 0 0.4-0.1 0.5-0.1 0.2 0 0.4 0 0.6-0.1 0.2-0.1 0.1-0.3 0.3-0.4 0.1-0.1 0.3 0 0.4-0.1 0.2-0.1 0.3-0.3 0.4-0.5 0-0.1 0-0.1 0-0.2 0-0.1 0.1-0.2 0.1-0.3 0-0.1-0.1-0.1-0.1-0.2 0-0.1 0-0.2 0-0.3 0-0.2 0-0.4-0.1-0.5 -0.4-0.7-1.2-0.9-2-0.8 -0.2 0-0.3 0.1-0.4 0.2 -0.2 0.1-0.1 0.2-0.3 0.2 -0.1 0-0.2 0.1-0.2 0.2 0 0.1 0 0.1 0 0.2 0 0 0 0 0 0" class="a"/><path d="M54.1-48.7c0 0.1 0 0.1 0 0.2 -0.1 0.1-0.1 0.1-0.2 0.1 0 0.1-0.1 0.3-0.1 0.4 -0.2 0.1 0 0.2 0 0.4 0 0.1 0 0.1 0 0.2 0 0.1 0 0.3 0.1 0.4 0.1 0.2 0.3 0.4 0.4 0.5 0.2 0.1 0.4 0.6 0.6 0.6 0.2 0 0.4-0.1 0.5-0.1 0.2 0 0.4 0 0.6-0.1 0.2-0.1 0.1-0.3 0.3-0.4 0.1-0.1 0.3 0 0.4-0.1 0.2-0.1 0.3-0.3 0.4-0.5 0-0.1 0-0.1 0-0.2 0-0.1 0.1-0.2 0.1-0.3 0-0.1-0.1-0.1-0.1-0.2 0-0.1 0-0.2 0-0.3 0-0.2 0-0.4-0.1-0.5 -0.4-0.7-1.2-0.9-2-0.8 -0.2 0-0.3 0.1-0.4 0.2 -0.2 0.1-0.1 0.2-0.3 0.2 -0.1 0-0.2 0.1-0.2 0.2 0 0.1 0 0.1 0 0.2 0 0 0 0 0 0" class="a"/><path d="M46.5-48.7c0 0.1 0 0.1 0 0.2 -0.1 0.1-0.1 0.1-0.2 0.1 0 0.1-0.1 0.3-0.1 0.4 -0.2 0.1 0 0.2 0 0.4 0 0.1 0 0.1 0 0.2 0 0.1 0 0.3 0.1 0.4 0.1 0.2 0.3 0.4 0.4 0.5 0.2 0.1 0.4 0.6 0.6 0.6 0.2 0 0.4-0.1 0.5-0.1 0.2 0 0.4 0 0.6-0.1 0.2-0.1 0.1-0.3 0.3-0.4 0.1-0.1 0.3 0 0.4-0.1 0.2-0.1 0.3-0.3 0.4-0.5 0-0.1 0-0.1 0-0.2 0-0.1 0.1-0.2 0.1-0.3 0-0.1-0.1-0.1-0.1-0.2 0-0.1 0-0.2 0-0.3 0-0.2 0-0.4-0.1-0.5 -0.4-0.7-1.2-0.9-2-0.8 -0.2 0-0.3 0.1-0.4 0.2 -0.2 0.1-0.1 0.2-0.3 0.2 -0.1 0-0.2 0.1-0.2 0.2 0 0.1 0 0.1 0 0.2 0 0 0 0 0 0" class="a"/><path d="M38.8-48.7c0 0.1 0 0.1 0 0.2 -0.1 0.1-0.1 0.1-0.2 0.1 0 0.1-0.1 0.3-0.1 0.4 -0.2 0.1 0 0.2 0 0.4 0 0.1 0 0.1 0 0.2 0 0.1 0 0.3 0.1 0.4 0.1 0.2 0.3 0.4 0.4 0.5 0.2 0.1 0.4 0.6 0.6 0.6 0.2 0 0.4-0.1 0.5-0.1 0.2 0 0.4 0 0.6-0.1 0.2-0.1 0.1-0.3 0.3-0.4 0.1-0.1 0.3 0 0.4-0.1 0.2-0.1 0.3-0.3 0.4-0.5 0-0.1 0-0.1 0-0.2 0-0.1 0.1-0.2 0.1-0.3 0-0.1-0.1-0.1-0.1-0.2 0-0.1 0-0.2 0-0.3 0-0.2 0-0.4-0.1-0.5 -0.4-0.7-1.2-0.9-2-0.8 -0.2 0-0.3 0.1-0.4 0.2 -0.2 0.1-0.1 0.2-0.3 0.2 -0.1 0-0.2 0.1-0.2 0.2 0 0.1 0 0.1 0 0.2 0 0 0 0 0 0" class="a"/><path d="M31.1-48.7c0 0.1 0 0.1 0 0.2 -0.1 0.1-0.1 0.1-0.2 0.1 0 0.1-0.1 0.3-0.1 0.4 -0.2 0.1 0 0.2 0 0.4 0 0.1 0 0.1 0 0.2 0 0.1 0 0.3 0.1 0.4 0.1 0.2 0.3 0.4 0.4 0.5 0.2 0.1 0.4 0.6 0.6 0.6 0.2 0 0.4-0.1 0.5-0.1 0.2 0 0.4 0 0.6-0.1 0.2-0.1 0.1-0.3 0.3-0.4 0.1-0.1 0.3 0 0.4-0.1 0.2-0.1 0.3-0.3 0.4-0.5 0-0.1 0-0.1 0-0.2 0-0.1 0.1-0.2 0.1-0.3 0-0.1-0.1-0.1-0.1-0.2 0-0.1 0-0.2 0-0.3 0-0.2 0-0.4-0.1-0.5 -0.4-0.7-1.2-0.9-2-0.8 -0.2 0-0.3 0.1-0.4 0.2 -0.2 0.1-0.1 0.2-0.3 0.2 -0.1 0-0.2 0.1-0.2 0.2 0 0.1 0 0.1 0 0.2 0 0 0 0 0 0" class="a"/><path d="M23.5-48.7c0 0.1 0 0.1 0 0.2 -0.1 0.1-0.1 0.1-0.2 0.1 0 0.1-0.1 0.3-0.1 0.4 -0.2 0.1 0 0.2 0 0.4 0 0.1 0 0.1 0 0.2 0 0.1 0 0.3 0.1 0.4 0.1 0.2 0.3 0.4 0.4 0.5 0.2 0.1 0.4 0.6 0.6 0.6 0.2 0 0.4-0.1 0.5-0.1 0.2 0 0.4 0 0.6-0.1 0.2-0.1 0.1-0.3 0.3-0.4 0.1-0.1 0.3 0 0.4-0.1 0.2-0.1 0.3-0.3 0.4-0.5 0-0.1 0-0.1 0-0.2 0-0.1 0.1-0.2 0.1-0.3 0-0.1-0.1-0.1-0.1-0.2 0-0.1 0-0.2 0-0.3 0-0.2 0-0.4-0.1-0.5 -0.4-0.7-1.2-0.9-2-0.8 -0.2 0-0.3 0.1-0.4 0.2 -0.2 0.1-0.1 0.2-0.3 0.2 -0.1 0-0.2 0.1-0.2 0.2 0 0.1 0 0.1 0 0.2 0 0 0 0 0 0" class="a"/><path d="M15.8-48.7c0 0.1 0 0.1 0 0.2 -0.1 0.1-0.1 0.1-0.2 0.1 0 0.1-0.1 0.3-0.1 0.4 -0.2 0.1 0 0.2 0 0.4 0 0.1 0 0.1 0 0.2 0 0.1 0 0.3 0.1 0.4 0.1 0.2 0.3 0.4 0.4 0.5 0.2 0.1 0.4 0.6 0.6 0.6 0.2 0 0.4-0.1 0.5-0.1 0.2 0 0.4 0 0.6-0.1 0.2-0.1 0.1-0.3 0.3-0.4 0.1-0.1 0.3 0 0.4-0.1 0.2-0.1 0.3-0.3 0.4-0.5 0-0.1 0-0.1 0-0.2 0-0.1 0.1-0.2 0.1-0.3 0-0.1-0.1-0.1-0.1-0.2 0-0.1 0-0.2 0-0.3 0-0.2 0-0.4-0.1-0.5 -0.4-0.7-1.2-0.9-2-0.8 -0.2 0-0.3 0.1-0.4 0.2 -0.2 0.1-0.1 0.2-0.3 0.2 -0.1 0-0.2 0.1-0.2 0.2 0 0.1 0 0.1 0 0.2 0 0 0 0 0 0" class="a"/><path d="M8.2-48.7c0 0.1 0 0.1 0 0.2 -0.1 0.1-0.1 0.1-0.2 0.1 0 0.1-0.1 0.3-0.1 0.4 -0.2 0.1 0 0.2 0 0.4 0 0.1 0 0.1 0 0.2 0 0.1 0 0.3 0.1 0.4 0.1 0.2 0.3 0.4 0.4 0.5 0.2 0.1 0.4 0.6 0.6 0.6 0.2 0 0.4-0.1 0.5-0.1 0.2 0 0.4 0 0.6-0.1 0.2-0.1 0.1-0.3 0.3-0.4 0.1-0.1 0.3 0 0.4-0.1 0.2-0.1 0.3-0.3 0.4-0.5 0-0.1 0-0.1 0-0.2 0-0.1 0.1-0.2 0.1-0.3 0-0.1-0.1-0.1-0.1-0.2 0-0.1 0-0.2 0-0.3 0-0.2 0-0.4-0.1-0.5 -0.4-0.7-1.2-0.9-2-0.8 -0.2 0-0.3 0.1-0.4 0.2 -0.2 0.1-0.1 0.2-0.3 0.2 -0.1 0-0.2 0.1-0.2 0.2 0 0.1 0 0.1 0 0.2 0 0 0 0 0 0" class="a"/><path d="M0.5-48.7c0 0.1 0 0.1 0 0.2 -0.1 0.1-0.1 0.1-0.2 0.1 0 0.1-0.1 0.3-0.1 0.4 -0.2 0.1 0 0.2 0 0.4 0 0.1 0 0.1 0 0.2 0 0.1 0 0.3 0.1 0.4 0.1 0.2 0.3 0.4 0.4 0.5 0.2 0.1 0.4 0.6 0.6 0.6 0.2 0 0.4-0.1 0.5-0.1 0.2 0 0.4 0 0.6-0.1 0.2-0.1 0.1-0.3 0.3-0.4 0.1-0.1 0.3 0 0.4-0.1 0.2-0.1 0.3-0.3 0.4-0.5 0-0.1 0-0.1 0-0.2 0-0.1 0.1-0.2 0.1-0.3 0-0.1-0.1-0.1-0.1-0.2 0-0.1 0-0.2 0-0.3 0-0.2 0-0.4-0.1-0.5 -0.4-0.7-1.2-0.9-2-0.8 -0.2 0-0.3 0.1-0.4 0.2 -0.2 0.1-0.1 0.2-0.3 0.2 -0.1 0-0.2 0.1-0.2 0.2 0 0.1 0 0.1 0 0.2 0 0 0 0 0 0" class="a"/><path d="M69.4-41c0 0.1 0 0.1 0 0.2 -0.1 0.1-0.1 0.1-0.2 0.1 0 0.1-0.1 0.3-0.1 0.4 -0.2 0.1 0 0.2 0 0.4 0 0.1 0 0.1 0 0.2 0 0.1 0 0.3 0.1 0.4 0.1 0.2 0.3 0.4 0.4 0.5 0.2 0.1 0.4 0.6 0.6 0.6 0.2 0 0.4-0.1 0.5-0.1 0.2 0 0.4 0 0.6-0.1 0.2-0.1 0.1-0.3 0.3-0.4 0.1-0.1 0.3 0 0.4-0.1 0.2-0.1 0.3-0.3 0.4-0.5 0-0.1 0-0.1 0-0.2 0-0.1 0.1-0.2 0.1-0.3 0-0.1-0.1-0.1-0.1-0.2 0-0.1 0-0.2 0-0.3 0-0.2 0-0.4-0.1-0.5 -0.4-0.7-1.2-0.9-2-0.8 -0.2 0-0.3 0.1-0.4 0.2 -0.2 0.1-0.1 0.2-0.3 0.2 -0.1 0-0.2 0.1-0.2 0.2 0 0.1 0 0.1 0 0.2 0 0 0 0 0 0" class="a"/><path d="M61.8-41c0 0.1 0 0.1 0 0.2 -0.1 0.1-0.1 0.1-0.2 0.1 0 0.1-0.1 0.3-0.1 0.4 -0.2 0.1 0 0.2 0 0.4 0 0.1 0 0.1 0 0.2 0 0.1 0 0.3 0.1 0.4 0.1 0.2 0.3 0.4 0.4 0.5 0.2 0.1 0.4 0.6 0.6 0.6 0.2 0 0.4-0.1 0.5-0.1 0.2 0 0.4 0 0.6-0.1 0.2-0.1 0.1-0.3 0.3-0.4 0.1-0.1 0.3 0 0.4-0.1 0.2-0.1 0.3-0.3 0.4-0.5 0-0.1 0-0.1 0-0.2 0-0.1 0.1-0.2 0.1-0.3 0-0.1-0.1-0.1-0.1-0.2 0-0.1 0-0.2 0-0.3 0-0.2 0-0.4-0.1-0.5 -0.4-0.7-1.2-0.9-2-0.8 -0.2 0-0.3 0.1-0.4 0.2 -0.2 0.1-0.1 0.2-0.3 0.2 -0.1 0-0.2 0.1-0.2 0.2 0 0.1 0 0.1 0 0.2 0 0 0 0 0 0" class="a"/><path d="M54.1-41c0 0.1 0 0.1 0 0.2 -0.1 0.1-0.1 0.1-0.2 0.1 0 0.1-0.1 0.3-0.1 0.4 -0.2 0.1 0 0.2 0 0.4 0 0.1 0 0.1 0 0.2 0 0.1 0 0.3 0.1 0.4 0.1 0.2 0.3 0.4 0.4 0.5 0.2 0.1 0.4 0.6 0.6 0.6 0.2 0 0.4-0.1 0.5-0.1 0.2 0 0.4 0 0.6-0.1 0.2-0.1 0.1-0.3 0.3-0.4 0.1-0.1 0.3 0 0.4-0.1 0.2-0.1 0.3-0.3 0.4-0.5 0-0.1 0-0.1 0-0.2 0-0.1 0.1-0.2 0.1-0.3 0-0.1-0.1-0.1-0.1-0.2 0-0.1 0-0.2 0-0.3 0-0.2 0-0.4-0.1-0.5 -0.4-0.7-1.2-0.9-2-0.8 -0.2 0-0.3 0.1-0.4 0.2 -0.2 0.1-0.1 0.2-0.3 0.2 -0.1 0-0.2 0.1-0.2 0.2 0 0.1 0 0.1 0 0.2 0 0 0 0 0 0" class="a"/><path d="M46.5-41c0 0.1 0 0.1 0 0.2 -0.1 0.1-0.1 0.1-0.2 0.1 0 0.1-0.1 0.3-0.1 0.4 -0.2 0.1 0 0.2 0 0.4 0 0.1 0 0.1 0 0.2 0 0.1 0 0.3 0.1 0.4 0.1 0.2 0.3 0.4 0.4 0.5 0.2 0.1 0.4 0.6 0.6 0.6 0.2 0 0.4-0.1 0.5-0.1 0.2 0 0.4 0 0.6-0.1 0.2-0.1 0.1-0.3 0.3-0.4 0.1-0.1 0.3 0 0.4-0.1 0.2-0.1 0.3-0.3 0.4-0.5 0-0.1 0-0.1 0-0.2 0-0.1 0.1-0.2 0.1-0.3 0-0.1-0.1-0.1-0.1-0.2 0-0.1 0-0.2 0-0.3 0-0.2 0-0.4-0.1-0.5 -0.4-0.7-1.2-0.9-2-0.8 -0.2 0-0.3 0.1-0.4 0.2 -0.2 0.1-0.1 0.2-0.3 0.2 -0.1 0-0.2 0.1-0.2 0.2 0 0.1 0 0.1 0 0.2 0 0 0 0 0 0" class="a"/><path d="M38.8-41c0 0.1 0 0.1 0 0.2 -0.1 0.1-0.1 0.1-0.2 0.1 0 0.1-0.1 0.3-0.1 0.4 -0.2 0.1 0 0.2 0 0.4 0 0.1 0 0.1 0 0.2 0 0.1 0 0.3 0.1 0.4 0.1 0.2 0.3 0.4 0.4 0.5 0.2 0.1 0.4 0.6 0.6 0.6 0.2 0 0.4-0.1 0.5-0.1 0.2 0 0.4 0 0.6-0.1 0.2-0.1 0.1-0.3 0.3-0.4 0.1-0.1 0.3 0 0.4-0.1 0.2-0.1 0.3-0.3 0.4-0.5 0-0.1 0-0.1 0-0.2 0-0.1 0.1-0.2 0.1-0.3 0-0.1-0.1-0.1-0.1-0.2 0-0.1 0-0.2 0-0.3 0-0.2 0-0.4-0.1-0.5 -0.4-0.7-1.2-0.9-2-0.8 -0.2 0-0.3 0.1-0.4 0.2 -0.2 0.1-0.1 0.2-0.3 0.2 -0.1 0-0.2 0.1-0.2 0.2 0 0.1 0 0.1 0 0.2 0 0 0 0 0 0" class="a"/><path d="M31.1-41c0 0.1 0 0.1 0 0.2 -0.1 0.1-0.1 0.1-0.2 0.1 0 0.1-0.1 0.3-0.1 0.4 -0.2 0.1 0 0.2 0 0.4 0 0.1 0 0.1 0 0.2 0 0.1 0 0.3 0.1 0.4 0.1 0.2 0.3 0.4 0.4 0.5 0.2 0.1 0.4 0.6 0.6 0.6 0.2 0 0.4-0.1 0.5-0.1 0.2 0 0.4 0 0.6-0.1 0.2-0.1 0.1-0.3 0.3-0.4 0.1-0.1 0.3 0 0.4-0.1 0.2-0.1 0.3-0.3 0.4-0.5 0-0.1 0-0.1 0-0.2 0-0.1 0.1-0.2 0.1-0.3 0-0.1-0.1-0.1-0.1-0.2 0-0.1 0-0.2 0-0.3 0-0.2 0-0.4-0.1-0.5 -0.4-0.7-1.2-0.9-2-0.8 -0.2 0-0.3 0.1-0.4 0.2 -0.2 0.1-0.1 0.2-0.3 0.2 -0.1 0-0.2 0.1-0.2 0.2 0 0.1 0 0.1 0 0.2 0 0 0 0 0 0" class="a"/><path d="M23.5-41c0 0.1 0 0.1 0 0.2 -0.1 0.1-0.1 0.1-0.2 0.1 0 0.1-0.1 0.3-0.1 0.4 -0.2 0.1 0 0.2 0 0.4 0 0.1 0 0.1 0 0.2 0 0.1 0 0.3 0.1 0.4 0.1 0.2 0.3 0.4 0.4 0.5 0.2 0.1 0.4 0.6 0.6 0.6 0.2 0 0.4-0.1 0.5-0.1 0.2 0 0.4 0 0.6-0.1 0.2-0.1 0.1-0.3 0.3-0.4 0.1-0.1 0.3 0 0.4-0.1 0.2-0.1 0.3-0.3 0.4-0.5 0-0.1 0-0.1 0-0.2 0-0.1 0.1-0.2 0.1-0.3 0-0.1-0.1-0.1-0.1-0.2 0-0.1 0-0.2 0-0.3 0-0.2 0-0.4-0.1-0.5 -0.4-0.7-1.2-0.9-2-0.8 -0.2 0-0.3 0.1-0.4 0.2 -0.2 0.1-0.1 0.2-0.3 0.2 -0.1 0-0.2 0.1-0.2 0.2 0 0.1 0 0.1 0 0.2 0 0 0 0 0 0" class="a"/><path d="M15.8-41c0 0.1 0 0.1 0 0.2 -0.1 0.1-0.1 0.1-0.2 0.1 0 0.1-0.1 0.3-0.1 0.4 -0.2 0.1 0 0.2 0 0.4 0 0.1 0 0.1 0 0.2 0 0.1 0 0.3 0.1 0.4 0.1 0.2 0.3 0.4 0.4 0.5 0.2 0.1 0.4 0.6 0.6 0.6 0.2 0 0.4-0.1 0.5-0.1 0.2 0 0.4 0 0.6-0.1 0.2-0.1 0.1-0.3 0.3-0.4 0.1-0.1 0.3 0 0.4-0.1 0.2-0.1 0.3-0.3 0.4-0.5 0-0.1 0-0.1 0-0.2 0-0.1 0.1-0.2 0.1-0.3 0-0.1-0.1-0.1-0.1-0.2 0-0.1 0-0.2 0-0.3 0-0.2 0-0.4-0.1-0.5 -0.4-0.7-1.2-0.9-2-0.8 -0.2 0-0.3 0.1-0.4 0.2 -0.2 0.1-0.1 0.2-0.3 0.2 -0.1 0-0.2 0.1-0.2 0.2 0 0.1 0 0.1 0 0.2 0 0 0 0 0 0" class="a"/><path d="M8.2-41c0 0.1 0 0.1 0 0.2 -0.1 0.1-0.1 0.1-0.2 0.1 0 0.1-0.1 0.3-0.1 0.4 -0.2 0.1 0 0.2 0 0.4 0 0.1 0 0.1 0 0.2 0 0.1 0 0.3 0.1 0.4 0.1 0.2 0.3 0.4 0.4 0.5 0.2 0.1 0.4 0.6 0.6 0.6 0.2 0 0.4-0.1 0.5-0.1 0.2 0 0.4 0 0.6-0.1 0.2-0.1 0.1-0.3 0.3-0.4 0.1-0.1 0.3 0 0.4-0.1 0.2-0.1 0.3-0.3 0.4-0.5 0-0.1 0-0.1 0-0.2 0-0.1 0.1-0.2 0.1-0.3 0-0.1-0.1-0.1-0.1-0.2 0-0.1 0-0.2 0-0.3 0-0.2 0-0.4-0.1-0.5 -0.4-0.7-1.2-0.9-2-0.8 -0.2 0-0.3 0.1-0.4 0.2 -0.2 0.1-0.1 0.2-0.3 0.2 -0.1 0-0.2 0.1-0.2 0.2 0 0.1 0 0.1 0 0.2C8.2-41 8.1-41 8.1-41" class="a"/><path d="M0.5-41c0 0.1 0 0.1 0 0.2 -0.1 0.1-0.1 0.1-0.2 0.1 0 0.1-0.1 0.3-0.1 0.4 -0.2 0.1 0 0.2 0 0.4 0 0.1 0 0.1 0 0.2 0 0.1 0 0.3 0.1 0.4 0.1 0.2 0.3 0.4 0.4 0.5 0.2 0.1 0.4 0.6 0.6 0.6 0.2 0 0.4-0.1 0.5-0.1 0.2 0 0.4 0 0.6-0.1 0.2-0.1 0.1-0.3 0.3-0.4 0.1-0.1 0.3 0 0.4-0.1 0.2-0.1 0.3-0.3 0.4-0.5 0-0.1 0-0.1 0-0.2 0-0.1 0.1-0.2 0.1-0.3 0-0.1-0.1-0.1-0.1-0.2 0-0.1 0-0.2 0-0.3 0-0.2 0-0.4-0.1-0.5 -0.4-0.7-1.2-0.9-2-0.8 -0.2 0-0.3 0.1-0.4 0.2 -0.2 0.1-0.1 0.2-0.3 0.2 -0.1 0-0.2 0.1-0.2 0.2 0 0.1 0 0.1 0 0.2 0 0 0 0 0 0" class="a"/><path d="M69.4-33.4c0 0.1 0 0.1 0 0.2 -0.1 0.1-0.1 0.1-0.2 0.1 0 0.1-0.1 0.3-0.1 0.4 -0.2 0.1 0 0.2 0 0.4 0 0.1 0 0.1 0 0.2 0 0.1 0 0.3 0.1 0.4 0.1 0.2 0.3 0.4 0.4 0.5 0.2 0.1 0.4 0.6 0.6 0.6 0.2 0 0.4-0.1 0.5-0.1 0.2 0 0.4 0 0.6-0.1 0.2-0.1 0.1-0.3 0.3-0.4 0.1-0.1 0.3 0 0.4-0.1 0.2-0.1 0.3-0.3 0.4-0.5 0-0.1 0-0.1 0-0.2 0-0.1 0.1-0.2 0.1-0.3 0-0.1-0.1-0.1-0.1-0.2 0-0.1 0-0.2 0-0.3 0-0.2 0-0.4-0.1-0.5 -0.4-0.7-1.2-0.9-2-0.8 -0.2 0-0.3 0.1-0.4 0.2 -0.2 0.1-0.1 0.2-0.3 0.2 -0.1 0-0.2 0.1-0.2 0.2 0 0.1 0 0.1 0 0.2 0 0 0 0 0 0" class="a"/><path d="M61.8-33.4c0 0.1 0 0.1 0 0.2 -0.1 0.1-0.1 0.1-0.2 0.1 0 0.1-0.1 0.3-0.1 0.4 -0.2 0.1 0 0.2 0 0.4 0 0.1 0 0.1 0 0.2 0 0.1 0 0.3 0.1 0.4 0.1 0.2 0.3 0.4 0.4 0.5 0.2 0.1 0.4 0.6 0.6 0.6 0.2 0 0.4-0.1 0.5-0.1 0.2 0 0.4 0 0.6-0.1 0.2-0.1 0.1-0.3 0.3-0.4 0.1-0.1 0.3 0 0.4-0.1 0.2-0.1 0.3-0.3 0.4-0.5 0-0.1 0-0.1 0-0.2 0-0.1 0.1-0.2 0.1-0.3 0-0.1-0.1-0.1-0.1-0.2 0-0.1 0-0.2 0-0.3 0-0.2 0-0.4-0.1-0.5 -0.4-0.7-1.2-0.9-2-0.8 -0.2 0-0.3 0.1-0.4 0.2 -0.2 0.1-0.1 0.2-0.3 0.2 -0.1 0-0.2 0.1-0.2 0.2 0 0.1 0 0.1 0 0.2 0 0 0 0 0 0" class="a"/><path d="M54.1-33.4c0 0.1 0 0.1 0 0.2 -0.1 0.1-0.1 0.1-0.2 0.1 0 0.1-0.1 0.3-0.1 0.4 -0.2 0.1 0 0.2 0 0.4 0 0.1 0 0.1 0 0.2 0 0.1 0 0.3 0.1 0.4 0.1 0.2 0.3 0.4 0.4 0.5 0.2 0.1 0.4 0.6 0.6 0.6 0.2 0 0.4-0.1 0.5-0.1 0.2 0 0.4 0 0.6-0.1 0.2-0.1 0.1-0.3 0.3-0.4 0.1-0.1 0.3 0 0.4-0.1 0.2-0.1 0.3-0.3 0.4-0.5 0-0.1 0-0.1 0-0.2 0-0.1 0.1-0.2 0.1-0.3 0-0.1-0.1-0.1-0.1-0.2 0-0.1 0-0.2 0-0.3 0-0.2 0-0.4-0.1-0.5 -0.4-0.7-1.2-0.9-2-0.8 -0.2 0-0.3 0.1-0.4 0.2 -0.2 0.1-0.1 0.2-0.3 0.2 -0.1 0-0.2 0.1-0.2 0.2 0 0.1 0 0.1 0 0.2 0 0 0 0 0 0" class="a"/><path d="M46.5-33.4c0 0.1 0 0.1 0 0.2 -0.1 0.1-0.1 0.1-0.2 0.1 0 0.1-0.1 0.3-0.1 0.4 -0.2 0.1 0 0.2 0 0.4 0 0.1 0 0.1 0 0.2 0 0.1 0 0.3 0.1 0.4 0.1 0.2 0.3 0.4 0.4 0.5 0.2 0.1 0.4 0.6 0.6 0.6 0.2 0 0.4-0.1 0.5-0.1 0.2 0 0.4 0 0.6-0.1 0.2-0.1 0.1-0.3 0.3-0.4 0.1-0.1 0.3 0 0.4-0.1 0.2-0.1 0.3-0.3 0.4-0.5 0-0.1 0-0.1 0-0.2 0-0.1 0.1-0.2 0.1-0.3 0-0.1-0.1-0.1-0.1-0.2 0-0.1 0-0.2 0-0.3 0-0.2 0-0.4-0.1-0.5 -0.4-0.7-1.2-0.9-2-0.8 -0.2 0-0.3 0.1-0.4 0.2 -0.2 0.1-0.1 0.2-0.3 0.2 -0.1 0-0.2 0.1-0.2 0.2 0 0.1 0 0.1 0 0.2 0 0 0 0 0 0" class="a"/><path d="M38.8-33.4c0 0.1 0 0.1 0 0.2 -0.1 0.1-0.1 0.1-0.2 0.1 0 0.1-0.1 0.3-0.1 0.4 -0.2 0.1 0 0.2 0 0.4 0 0.1 0 0.1 0 0.2 0 0.1 0 0.3 0.1 0.4 0.1 0.2 0.3 0.4 0.4 0.5 0.2 0.1 0.4 0.6 0.6 0.6 0.2 0 0.4-0.1 0.5-0.1 0.2 0 0.4 0 0.6-0.1 0.2-0.1 0.1-0.3 0.3-0.4 0.1-0.1 0.3 0 0.4-0.1 0.2-0.1 0.3-0.3 0.4-0.5 0-0.1 0-0.1 0-0.2 0-0.1 0.1-0.2 0.1-0.3 0-0.1-0.1-0.1-0.1-0.2 0-0.1 0-0.2 0-0.3 0-0.2 0-0.4-0.1-0.5 -0.4-0.7-1.2-0.9-2-0.8 -0.2 0-0.3 0.1-0.4 0.2 -0.2 0.1-0.1 0.2-0.3 0.2 -0.1 0-0.2 0.1-0.2 0.2 0 0.1 0 0.1 0 0.2 0 0 0 0 0 0" class="a"/><path d="M31.1-33.4c0 0.1 0 0.1 0 0.2 -0.1 0.1-0.1 0.1-0.2 0.1 0 0.1-0.1 0.3-0.1 0.4 -0.2 0.1 0 0.2 0 0.4 0 0.1 0 0.1 0 0.2 0 0.1 0 0.3 0.1 0.4 0.1 0.2 0.3 0.4 0.4 0.5 0.2 0.1 0.4 0.6 0.6 0.6 0.2 0 0.4-0.1 0.5-0.1 0.2 0 0.4 0 0.6-0.1 0.2-0.1 0.1-0.3 0.3-0.4 0.1-0.1 0.3 0 0.4-0.1 0.2-0.1 0.3-0.3 0.4-0.5 0-0.1 0-0.1 0-0.2 0-0.1 0.1-0.2 0.1-0.3 0-0.1-0.1-0.1-0.1-0.2 0-0.1 0-0.2 0-0.3 0-0.2 0-0.4-0.1-0.5 -0.4-0.7-1.2-0.9-2-0.8 -0.2 0-0.3 0.1-0.4 0.2 -0.2 0.1-0.1 0.2-0.3 0.2 -0.1 0-0.2 0.1-0.2 0.2 0 0.1 0 0.1 0 0.2 0 0 0 0 0 0" class="a"/><path d="M23.5-33.4c0 0.1 0 0.1 0 0.2 -0.1 0.1-0.1 0.1-0.2 0.1 0 0.1-0.1 0.3-0.1 0.4 -0.2 0.1 0 0.2 0 0.4 0 0.1 0 0.1 0 0.2 0 0.1 0 0.3 0.1 0.4 0.1 0.2 0.3 0.4 0.4 0.5 0.2 0.1 0.4 0.6 0.6 0.6 0.2 0 0.4-0.1 0.5-0.1 0.2 0 0.4 0 0.6-0.1 0.2-0.1 0.1-0.3 0.3-0.4 0.1-0.1 0.3 0 0.4-0.1 0.2-0.1 0.3-0.3 0.4-0.5 0-0.1 0-0.1 0-0.2 0-0.1 0.1-0.2 0.1-0.3 0-0.1-0.1-0.1-0.1-0.2 0-0.1 0-0.2 0-0.3 0-0.2 0-0.4-0.1-0.5 -0.4-0.7-1.2-0.9-2-0.8 -0.2 0-0.3 0.1-0.4 0.2 -0.2 0.1-0.1 0.2-0.3 0.2 -0.1 0-0.2 0.1-0.2 0.2 0 0.1 0 0.1 0 0.2 0 0 0 0 0 0" class="a"/><path d="M15.8-33.4c0 0.1 0 0.1 0 0.2 -0.1 0.1-0.1 0.1-0.2 0.1 0 0.1-0.1 0.3-0.1 0.4 -0.2 0.1 0 0.2 0 0.4 0 0.1 0 0.1 0 0.2 0 0.1 0 0.3 0.1 0.4 0.1 0.2 0.3 0.4 0.4 0.5 0.2 0.1 0.4 0.6 0.6 0.6 0.2 0 0.4-0.1 0.5-0.1 0.2 0 0.4 0 0.6-0.1 0.2-0.1 0.1-0.3 0.3-0.4 0.1-0.1 0.3 0 0.4-0.1 0.2-0.1 0.3-0.3 0.4-0.5 0-0.1 0-0.1 0-0.2 0-0.1 0.1-0.2 0.1-0.3 0-0.1-0.1-0.1-0.1-0.2 0-0.1 0-0.2 0-0.3 0-0.2 0-0.4-0.1-0.5 -0.4-0.7-1.2-0.9-2-0.8 -0.2 0-0.3 0.1-0.4 0.2 -0.2 0.1-0.1 0.2-0.3 0.2 -0.1 0-0.2 0.1-0.2 0.2 0 0.1 0 0.1 0 0.2 0 0 0 0 0 0" class="a"/><path d="M8.2-33.4c0 0.1 0 0.1 0 0.2 -0.1 0.1-0.1 0.1-0.2 0.1 0 0.1-0.1 0.3-0.1 0.4 -0.2 0.1 0 0.2 0 0.4 0 0.1 0 0.1 0 0.2 0 0.1 0 0.3 0.1 0.4 0.1 0.2 0.3 0.4 0.4 0.5 0.2 0.1 0.4 0.6 0.6 0.6 0.2 0 0.4-0.1 0.5-0.1 0.2 0 0.4 0 0.6-0.1 0.2-0.1 0.1-0.3 0.3-0.4 0.1-0.1 0.3 0 0.4-0.1 0.2-0.1 0.3-0.3 0.4-0.5 0-0.1 0-0.1 0-0.2 0-0.1 0.1-0.2 0.1-0.3 0-0.1-0.1-0.1-0.1-0.2 0-0.1 0-0.2 0-0.3 0-0.2 0-0.4-0.1-0.5 -0.4-0.7-1.2-0.9-2-0.8 -0.2 0-0.3 0.1-0.4 0.2 -0.2 0.1-0.1 0.2-0.3 0.2 -0.1 0-0.2 0.1-0.2 0.2 0 0.1 0 0.1 0 0.2 0 0 0 0 0 0" class="a"/><path d="M0.5-33.4c0 0.1 0 0.1 0 0.2 -0.1 0.1-0.1 0.1-0.2 0.1 0 0.1-0.1 0.3-0.1 0.4 -0.2 0.1 0 0.2 0 0.4 0 0.1 0 0.1 0 0.2 0 0.1 0 0.3 0.1 0.4 0.1 0.2 0.3 0.4 0.4 0.5 0.2 0.1 0.4 0.6 0.6 0.6 0.2 0 0.4-0.1 0.5-0.1 0.2 0 0.4 0 0.6-0.1 0.2-0.1 0.1-0.3 0.3-0.4 0.1-0.1 0.3 0 0.4-0.1 0.2-0.1 0.3-0.3 0.4-0.5 0-0.1 0-0.1 0-0.2 0-0.1 0.1-0.2 0.1-0.3 0-0.1-0.1-0.1-0.1-0.2 0-0.1 0-0.2 0-0.3 0-0.2 0-0.4-0.1-0.5 -0.4-0.7-1.2-0.9-2-0.8 -0.2 0-0.3 0.1-0.4 0.2 -0.2 0.1-0.1 0.2-0.3 0.2 -0.1 0-0.2 0.1-0.2 0.2C0.5-33.4 0.5-33.5 0.5-33.4c0 0 0 0 0 0" class="a"/><path d="M69.4-25.7c0 0.1 0 0.1 0 0.2 -0.1 0.1-0.1 0.1-0.2 0.1 0 0.1-0.1 0.3-0.1 0.4 -0.2 0.1 0 0.2 0 0.4 0 0.1 0 0.1 0 0.2 0 0.1 0 0.3 0.1 0.4 0.1 0.2 0.3 0.4 0.4 0.5 0.2 0.1 0.4 0.6 0.6 0.6 0.2 0 0.4-0.1 0.5-0.1 0.2 0 0.4 0 0.6-0.1 0.2-0.1 0.1-0.3 0.3-0.4 0.1-0.1 0.3 0 0.4-0.1 0.2-0.1 0.3-0.3 0.4-0.5 0-0.1 0-0.1 0-0.2 0-0.1 0.1-0.2 0.1-0.3 0-0.1-0.1-0.1-0.1-0.2 0-0.1 0-0.2 0-0.3 0-0.2 0-0.4-0.1-0.5 -0.4-0.7-1.2-0.9-2-0.8 -0.2 0-0.3 0.1-0.4 0.2 -0.2 0.1-0.1 0.2-0.3 0.2 -0.1 0-0.2 0.1-0.2 0.2 0 0.1 0 0.1 0 0.2 0 0 0 0 0 0" class="a"/><path d="M61.8-25.7c0 0.1 0 0.1 0 0.2 -0.1 0.1-0.1 0.1-0.2 0.1 0 0.1-0.1 0.3-0.1 0.4 -0.2 0.1 0 0.2 0 0.4 0 0.1 0 0.1 0 0.2 0 0.1 0 0.3 0.1 0.4 0.1 0.2 0.3 0.4 0.4 0.5 0.2 0.1 0.4 0.6 0.6 0.6 0.2 0 0.4-0.1 0.5-0.1 0.2 0 0.4 0 0.6-0.1 0.2-0.1 0.1-0.3 0.3-0.4 0.1-0.1 0.3 0 0.4-0.1 0.2-0.1 0.3-0.3 0.4-0.5 0-0.1 0-0.1 0-0.2 0-0.1 0.1-0.2 0.1-0.3 0-0.1-0.1-0.1-0.1-0.2 0-0.1 0-0.2 0-0.3 0-0.2 0-0.4-0.1-0.5 -0.4-0.7-1.2-0.9-2-0.8 -0.2 0-0.3 0.1-0.4 0.2 -0.2 0.1-0.1 0.2-0.3 0.2 -0.1 0-0.2 0.1-0.2 0.2 0 0.1 0 0.1 0 0.2 0 0 0 0 0 0" class="a"/><path d="M54.1-25.7c0 0.1 0 0.1 0 0.2 -0.1 0.1-0.1 0.1-0.2 0.1 0 0.1-0.1 0.3-0.1 0.4 -0.2 0.1 0 0.2 0 0.4 0 0.1 0 0.1 0 0.2 0 0.1 0 0.3 0.1 0.4 0.1 0.2 0.3 0.4 0.4 0.5 0.2 0.1 0.4 0.6 0.6 0.6 0.2 0 0.4-0.1 0.5-0.1 0.2 0 0.4 0 0.6-0.1 0.2-0.1 0.1-0.3 0.3-0.4 0.1-0.1 0.3 0 0.4-0.1 0.2-0.1 0.3-0.3 0.4-0.5 0-0.1 0-0.1 0-0.2 0-0.1 0.1-0.2 0.1-0.3 0-0.1-0.1-0.1-0.1-0.2 0-0.1 0-0.2 0-0.3 0-0.2 0-0.4-0.1-0.5 -0.4-0.7-1.2-0.9-2-0.8 -0.2 0-0.3 0.1-0.4 0.2 -0.2 0.1-0.1 0.2-0.3 0.2 -0.1 0-0.2 0.1-0.2 0.2 0 0.1 0 0.1 0 0.2 0 0 0 0 0 0" class="a"/><path d="M46.5-25.7c0 0.1 0 0.1 0 0.2 -0.1 0.1-0.1 0.1-0.2 0.1 0 0.1-0.1 0.3-0.1 0.4 -0.2 0.1 0 0.2 0 0.4 0 0.1 0 0.1 0 0.2 0 0.1 0 0.3 0.1 0.4 0.1 0.2 0.3 0.4 0.4 0.5 0.2 0.1 0.4 0.6 0.6 0.6 0.2 0 0.4-0.1 0.5-0.1 0.2 0 0.4 0 0.6-0.1 0.2-0.1 0.1-0.3 0.3-0.4 0.1-0.1 0.3 0 0.4-0.1 0.2-0.1 0.3-0.3 0.4-0.5 0-0.1 0-0.1 0-0.2 0-0.1 0.1-0.2 0.1-0.3 0-0.1-0.1-0.1-0.1-0.2 0-0.1 0-0.2 0-0.3 0-0.2 0-0.4-0.1-0.5 -0.4-0.7-1.2-0.9-2-0.8 -0.2 0-0.3 0.1-0.4 0.2 -0.2 0.1-0.1 0.2-0.3 0.2 -0.1 0-0.2 0.1-0.2 0.2 0 0.1 0 0.1 0 0.2 0 0 0 0 0 0" class="a"/><path d="M38.8-25.7c0 0.1 0 0.1 0 0.2 -0.1 0.1-0.1 0.1-0.2 0.1 0 0.1-0.1 0.3-0.1 0.4 -0.2 0.1 0 0.2 0 0.4 0 0.1 0 0.1 0 0.2 0 0.1 0 0.3 0.1 0.4 0.1 0.2 0.3 0.4 0.4 0.5 0.2 0.1 0.4 0.6 0.6 0.6 0.2 0 0.4-0.1 0.5-0.1 0.2 0 0.4 0 0.6-0.1 0.2-0.1 0.1-0.3 0.3-0.4 0.1-0.1 0.3 0 0.4-0.1 0.2-0.1 0.3-0.3 0.4-0.5 0-0.1 0-0.1 0-0.2 0-0.1 0.1-0.2 0.1-0.3 0-0.1-0.1-0.1-0.1-0.2 0-0.1 0-0.2 0-0.3 0-0.2 0-0.4-0.1-0.5 -0.4-0.7-1.2-0.9-2-0.8 -0.2 0-0.3 0.1-0.4 0.2 -0.2 0.1-0.1 0.2-0.3 0.2 -0.1 0-0.2 0.1-0.2 0.2 0 0.1 0 0.1 0 0.2 0 0 0 0 0 0" class="a"/><path d="M31.1-25.7c0 0.1 0 0.1 0 0.2 -0.1 0.1-0.1 0.1-0.2 0.1 0 0.1-0.1 0.3-0.1 0.4 -0.2 0.1 0 0.2 0 0.4 0 0.1 0 0.1 0 0.2 0 0.1 0 0.3 0.1 0.4 0.1 0.2 0.3 0.4 0.4 0.5 0.2 0.1 0.4 0.6 0.6 0.6 0.2 0 0.4-0.1 0.5-0.1 0.2 0 0.4 0 0.6-0.1 0.2-0.1 0.1-0.3 0.3-0.4 0.1-0.1 0.3 0 0.4-0.1 0.2-0.1 0.3-0.3 0.4-0.5 0-0.1 0-0.1 0-0.2 0-0.1 0.1-0.2 0.1-0.3 0-0.1-0.1-0.1-0.1-0.2 0-0.1 0-0.2 0-0.3 0-0.2 0-0.4-0.1-0.5 -0.4-0.7-1.2-0.9-2-0.8 -0.2 0-0.3 0.1-0.4 0.2 -0.2 0.1-0.1 0.2-0.3 0.2 -0.1 0-0.2 0.1-0.2 0.2 0 0.1 0 0.1 0 0.2 0 0 0 0 0 0" class="a"/><path d="M23.5-25.7c0 0.1 0 0.1 0 0.2 -0.1 0.1-0.1 0.1-0.2 0.1 0 0.1-0.1 0.3-0.1 0.4 -0.2 0.1 0 0.2 0 0.4 0 0.1 0 0.1 0 0.2 0 0.1 0 0.3 0.1 0.4 0.1 0.2 0.3 0.4 0.4 0.5 0.2 0.1 0.4 0.6 0.6 0.6 0.2 0 0.4-0.1 0.5-0.1 0.2 0 0.4 0 0.6-0.1 0.2-0.1 0.1-0.3 0.3-0.4 0.1-0.1 0.3 0 0.4-0.1 0.2-0.1 0.3-0.3 0.4-0.5 0-0.1 0-0.1 0-0.2 0-0.1 0.1-0.2 0.1-0.3 0-0.1-0.1-0.1-0.1-0.2 0-0.1 0-0.2 0-0.3 0-0.2 0-0.4-0.1-0.5 -0.4-0.7-1.2-0.9-2-0.8 -0.2 0-0.3 0.1-0.4 0.2 -0.2 0.1-0.1 0.2-0.3 0.2 -0.1 0-0.2 0.1-0.2 0.2 0 0.1 0 0.1 0 0.2 0 0 0 0 0 0" class="a"/><path d="M15.8-25.7c0 0.1 0 0.1 0 0.2 -0.1 0.1-0.1 0.1-0.2 0.1 0 0.1-0.1 0.3-0.1 0.4 -0.2 0.1 0 0.2 0 0.4 0 0.1 0 0.1 0 0.2 0 0.1 0 0.3 0.1 0.4 0.1 0.2 0.3 0.4 0.4 0.5 0.2 0.1 0.4 0.6 0.6 0.6 0.2 0 0.4-0.1 0.5-0.1 0.2 0 0.4 0 0.6-0.1 0.2-0.1 0.1-0.3 0.3-0.4 0.1-0.1 0.3 0 0.4-0.1 0.2-0.1 0.3-0.3 0.4-0.5 0-0.1 0-0.1 0-0.2 0-0.1 0.1-0.2 0.1-0.3 0-0.1-0.1-0.1-0.1-0.2 0-0.1 0-0.2 0-0.3 0-0.2 0-0.4-0.1-0.5 -0.4-0.7-1.2-0.9-2-0.8 -0.2 0-0.3 0.1-0.4 0.2 -0.2 0.1-0.1 0.2-0.3 0.2 -0.1 0-0.2 0.1-0.2 0.2 0 0.1 0 0.1 0 0.2 0 0 0 0 0 0" class="a"/><path d="M8.2-25.7c0 0.1 0 0.1 0 0.2 -0.1 0.1-0.1 0.1-0.2 0.1 0 0.1-0.1 0.3-0.1 0.4 -0.2 0.1 0 0.2 0 0.4 0 0.1 0 0.1 0 0.2 0 0.1 0 0.3 0.1 0.4 0.1 0.2 0.3 0.4 0.4 0.5 0.2 0.1 0.4 0.6 0.6 0.6 0.2 0 0.4-0.1 0.5-0.1 0.2 0 0.4 0 0.6-0.1 0.2-0.1 0.1-0.3 0.3-0.4 0.1-0.1 0.3 0 0.4-0.1 0.2-0.1 0.3-0.3 0.4-0.5 0-0.1 0-0.1 0-0.2 0-0.1 0.1-0.2 0.1-0.3 0-0.1-0.1-0.1-0.1-0.2 0-0.1 0-0.2 0-0.3 0-0.2 0-0.4-0.1-0.5 -0.4-0.7-1.2-0.9-2-0.8 -0.2 0-0.3 0.1-0.4 0.2 -0.2 0.1-0.1 0.2-0.3 0.2 -0.1 0-0.2 0.1-0.2 0.2 0 0.1 0 0.1 0 0.2 0 0 0 0 0 0" class="a"/><path d="M0.5-25.7c0 0.1 0 0.1 0 0.2 -0.1 0.1-0.1 0.1-0.2 0.1 0 0.1-0.1 0.3-0.1 0.4 -0.2 0.1 0 0.2 0 0.4 0 0.1 0 0.1 0 0.2 0 0.1 0 0.3 0.1 0.4 0.1 0.2 0.3 0.4 0.4 0.5 0.2 0.1 0.4 0.6 0.6 0.6 0.2 0 0.4-0.1 0.5-0.1 0.2 0 0.4 0 0.6-0.1 0.2-0.1 0.1-0.3 0.3-0.4 0.1-0.1 0.3 0 0.4-0.1 0.2-0.1 0.3-0.3 0.4-0.5 0-0.1 0-0.1 0-0.2 0-0.1 0.1-0.2 0.1-0.3 0-0.1-0.1-0.1-0.1-0.2 0-0.1 0-0.2 0-0.3 0-0.2 0-0.4-0.1-0.5 -0.4-0.7-1.2-0.9-2-0.8 -0.2 0-0.3 0.1-0.4 0.2 -0.2 0.1-0.1 0.2-0.3 0.2 -0.1 0-0.2 0.1-0.2 0.2 0 0.1 0 0.1 0 0.2 0 0 0 0 0 0" class="a"/><path d="M69.4-18.1c0 0.1 0 0.1 0 0.2 -0.1 0.1-0.1 0.1-0.2 0.1 0 0.1-0.1 0.3-0.1 0.4 -0.2 0.1 0 0.2 0 0.4 0 0.1 0 0.1 0 0.2 0 0.1 0 0.3 0.1 0.4 0.1 0.2 0.3 0.4 0.4 0.5 0.2 0.1 0.4 0.6 0.6 0.6 0.2 0 0.4-0.1 0.5-0.1 0.2 0 0.4 0 0.6-0.1 0.2-0.1 0.1-0.3 0.3-0.4 0.1-0.1 0.3 0 0.4-0.1 0.2-0.1 0.3-0.3 0.4-0.5 0-0.1 0-0.1 0-0.2 0-0.1 0.1-0.2 0.1-0.3 0-0.1-0.1-0.1-0.1-0.2 0-0.1 0-0.2 0-0.3 0-0.2 0-0.4-0.1-0.5 -0.4-0.7-1.2-0.9-2-0.8 -0.2 0-0.3 0.1-0.4 0.2 -0.2 0.1-0.1 0.2-0.3 0.2 -0.1 0-0.2 0.1-0.2 0.2 0 0.1 0 0.1 0 0.2 0 0 0 0 0 0" class="a"/><path d="M61.8-18.1c0 0.1 0 0.1 0 0.2 -0.1 0.1-0.1 0.1-0.2 0.1 0 0.1-0.1 0.3-0.1 0.4 -0.2 0.1 0 0.2 0 0.4 0 0.1 0 0.1 0 0.2 0 0.1 0 0.3 0.1 0.4 0.1 0.2 0.3 0.4 0.4 0.5 0.2 0.1 0.4 0.6 0.6 0.6 0.2 0 0.4-0.1 0.5-0.1 0.2 0 0.4 0 0.6-0.1 0.2-0.1 0.1-0.3 0.3-0.4 0.1-0.1 0.3 0 0.4-0.1 0.2-0.1 0.3-0.3 0.4-0.5 0-0.1 0-0.1 0-0.2 0-0.1 0.1-0.2 0.1-0.3 0-0.1-0.1-0.1-0.1-0.2 0-0.1 0-0.2 0-0.3 0-0.2 0-0.4-0.1-0.5 -0.4-0.7-1.2-0.9-2-0.8 -0.2 0-0.3 0.1-0.4 0.2 -0.2 0.1-0.1 0.2-0.3 0.2 -0.1 0-0.2 0.1-0.2 0.2 0 0.1 0 0.1 0 0.2 0 0 0 0 0 0" class="a"/><path d="M54.1-18.1c0 0.1 0 0.1 0 0.2 -0.1 0.1-0.1 0.1-0.2 0.1 0 0.1-0.1 0.3-0.1 0.4 -0.2 0.1 0 0.2 0 0.4 0 0.1 0 0.1 0 0.2 0 0.1 0 0.3 0.1 0.4 0.1 0.2 0.3 0.4 0.4 0.5 0.2 0.1 0.4 0.6 0.6 0.6 0.2 0 0.4-0.1 0.5-0.1 0.2 0 0.4 0 0.6-0.1 0.2-0.1 0.1-0.3 0.3-0.4 0.1-0.1 0.3 0 0.4-0.1 0.2-0.1 0.3-0.3 0.4-0.5 0-0.1 0-0.1 0-0.2 0-0.1 0.1-0.2 0.1-0.3 0-0.1-0.1-0.1-0.1-0.2 0-0.1 0-0.2 0-0.3 0-0.2 0-0.4-0.1-0.5 -0.4-0.7-1.2-0.9-2-0.8 -0.2 0-0.3 0.1-0.4 0.2 -0.2 0.1-0.1 0.2-0.3 0.2 -0.1 0-0.2 0.1-0.2 0.2 0 0.1 0 0.1 0 0.2 0 0 0 0 0 0" class="a"/><path d="M46.5-18.1c0 0.1 0 0.1 0 0.2 -0.1 0.1-0.1 0.1-0.2 0.1 0 0.1-0.1 0.3-0.1 0.4 -0.2 0.1 0 0.2 0 0.4 0 0.1 0 0.1 0 0.2 0 0.1 0 0.3 0.1 0.4 0.1 0.2 0.3 0.4 0.4 0.5 0.2 0.1 0.4 0.6 0.6 0.6 0.2 0 0.4-0.1 0.5-0.1 0.2 0 0.4 0 0.6-0.1 0.2-0.1 0.1-0.3 0.3-0.4 0.1-0.1 0.3 0 0.4-0.1 0.2-0.1 0.3-0.3 0.4-0.5 0-0.1 0-0.1 0-0.2 0-0.1 0.1-0.2 0.1-0.3 0-0.1-0.1-0.1-0.1-0.2 0-0.1 0-0.2 0-0.3 0-0.2 0-0.4-0.1-0.5 -0.4-0.7-1.2-0.9-2-0.8 -0.2 0-0.3 0.1-0.4 0.2 -0.2 0.1-0.1 0.2-0.3 0.2 -0.1 0-0.2 0.1-0.2 0.2 0 0.1 0 0.1 0 0.2 0 0 0 0 0 0" class="a"/><path d="M38.8-18.1c0 0.1 0 0.1 0 0.2 -0.1 0.1-0.1 0.1-0.2 0.1 0 0.1-0.1 0.3-0.1 0.4 -0.2 0.1 0 0.2 0 0.4 0 0.1 0 0.1 0 0.2 0 0.1 0 0.3 0.1 0.4 0.1 0.2 0.3 0.4 0.4 0.5 0.2 0.1 0.4 0.6 0.6 0.6 0.2 0 0.4-0.1 0.5-0.1 0.2 0 0.4 0 0.6-0.1 0.2-0.1 0.1-0.3 0.3-0.4 0.1-0.1 0.3 0 0.4-0.1 0.2-0.1 0.3-0.3 0.4-0.5 0-0.1 0-0.1 0-0.2 0-0.1 0.1-0.2 0.1-0.3 0-0.1-0.1-0.1-0.1-0.2 0-0.1 0-0.2 0-0.3 0-0.2 0-0.4-0.1-0.5 -0.4-0.7-1.2-0.9-2-0.8 -0.2 0-0.3 0.1-0.4 0.2 -0.2 0.1-0.1 0.2-0.3 0.2 -0.1 0-0.2 0.1-0.2 0.2 0 0.1 0 0.1 0 0.2 0 0 0 0 0 0" class="a"/><path d="M31.1-18.1c0 0.1 0 0.1 0 0.2 -0.1 0.1-0.1 0.1-0.2 0.1 0 0.1-0.1 0.3-0.1 0.4 -0.2 0.1 0 0.2 0 0.4 0 0.1 0 0.1 0 0.2 0 0.1 0 0.3 0.1 0.4 0.1 0.2 0.3 0.4 0.4 0.5 0.2 0.1 0.4 0.6 0.6 0.6 0.2 0 0.4-0.1 0.5-0.1 0.2 0 0.4 0 0.6-0.1 0.2-0.1 0.1-0.3 0.3-0.4 0.1-0.1 0.3 0 0.4-0.1 0.2-0.1 0.3-0.3 0.4-0.5 0-0.1 0-0.1 0-0.2 0-0.1 0.1-0.2 0.1-0.3 0-0.1-0.1-0.1-0.1-0.2 0-0.1 0-0.2 0-0.3 0-0.2 0-0.4-0.1-0.5 -0.4-0.7-1.2-0.9-2-0.8 -0.2 0-0.3 0.1-0.4 0.2 -0.2 0.1-0.1 0.2-0.3 0.2 -0.1 0-0.2 0.1-0.2 0.2 0 0.1 0 0.1 0 0.2 0 0 0 0 0 0" class="a"/><path d="M23.5-18.1c0 0.1 0 0.1 0 0.2 -0.1 0.1-0.1 0.1-0.2 0.1 0 0.1-0.1 0.3-0.1 0.4 -0.2 0.1 0 0.2 0 0.4 0 0.1 0 0.1 0 0.2 0 0.1 0 0.3 0.1 0.4 0.1 0.2 0.3 0.4 0.4 0.5 0.2 0.1 0.4 0.6 0.6 0.6 0.2 0 0.4-0.1 0.5-0.1 0.2 0 0.4 0 0.6-0.1 0.2-0.1 0.1-0.3 0.3-0.4 0.1-0.1 0.3 0 0.4-0.1 0.2-0.1 0.3-0.3 0.4-0.5 0-0.1 0-0.1 0-0.2 0-0.1 0.1-0.2 0.1-0.3 0-0.1-0.1-0.1-0.1-0.2 0-0.1 0-0.2 0-0.3 0-0.2 0-0.4-0.1-0.5 -0.4-0.7-1.2-0.9-2-0.8 -0.2 0-0.3 0.1-0.4 0.2 -0.2 0.1-0.1 0.2-0.3 0.2 -0.1 0-0.2 0.1-0.2 0.2 0 0.1 0 0.1 0 0.2 0 0 0 0 0 0" class="a"/><path d="M15.8-18.1c0 0.1 0 0.1 0 0.2 -0.1 0.1-0.1 0.1-0.2 0.1 0 0.1-0.1 0.3-0.1 0.4 -0.2 0.1 0 0.2 0 0.4 0 0.1 0 0.1 0 0.2 0 0.1 0 0.3 0.1 0.4 0.1 0.2 0.3 0.4 0.4 0.5 0.2 0.1 0.4 0.6 0.6 0.6 0.2 0 0.4-0.1 0.5-0.1 0.2 0 0.4 0 0.6-0.1 0.2-0.1 0.1-0.3 0.3-0.4 0.1-0.1 0.3 0 0.4-0.1 0.2-0.1 0.3-0.3 0.4-0.5 0-0.1 0-0.1 0-0.2 0-0.1 0.1-0.2 0.1-0.3 0-0.1-0.1-0.1-0.1-0.2 0-0.1 0-0.2 0-0.3 0-0.2 0-0.4-0.1-0.5 -0.4-0.7-1.2-0.9-2-0.8 -0.2 0-0.3 0.1-0.4 0.2 -0.2 0.1-0.1 0.2-0.3 0.2 -0.1 0-0.2 0.1-0.2 0.2 0 0.1 0 0.1 0 0.2 0 0 0 0 0 0" class="a"/><path d="M8.2-18.1c0 0.1 0 0.1 0 0.2 -0.1 0.1-0.1 0.1-0.2 0.1 0 0.1-0.1 0.3-0.1 0.4 -0.2 0.1 0 0.2 0 0.4 0 0.1 0 0.1 0 0.2 0 0.1 0 0.3 0.1 0.4 0.1 0.2 0.3 0.4 0.4 0.5 0.2 0.1 0.4 0.6 0.6 0.6 0.2 0 0.4-0.1 0.5-0.1 0.2 0 0.4 0 0.6-0.1 0.2-0.1 0.1-0.3 0.3-0.4 0.1-0.1 0.3 0 0.4-0.1 0.2-0.1 0.3-0.3 0.4-0.5 0-0.1 0-0.1 0-0.2 0-0.1 0.1-0.2 0.1-0.3 0-0.1-0.1-0.1-0.1-0.2 0-0.1 0-0.2 0-0.3 0-0.2 0-0.4-0.1-0.5 -0.4-0.7-1.2-0.9-2-0.8 -0.2 0-0.3 0.1-0.4 0.2 -0.2 0.1-0.1 0.2-0.3 0.2 -0.1 0-0.2 0.1-0.2 0.2 0 0.1 0 0.1 0 0.2 0 0 0 0 0 0" class="a"/><path d="M0.5-18.1c0 0.1 0 0.1 0 0.2 -0.1 0.1-0.1 0.1-0.2 0.1 0 0.1-0.1 0.3-0.1 0.4 -0.2 0.1 0 0.2 0 0.4 0 0.1 0 0.1 0 0.2 0 0.1 0 0.3 0.1 0.4 0.1 0.2 0.3 0.4 0.4 0.5 0.2 0.1 0.4 0.6 0.6 0.6 0.2 0 0.4-0.1 0.5-0.1 0.2 0 0.4 0 0.6-0.1 0.2-0.1 0.1-0.3 0.3-0.4 0.1-0.1 0.3 0 0.4-0.1 0.2-0.1 0.3-0.3 0.4-0.5 0-0.1 0-0.1 0-0.2 0-0.1 0.1-0.2 0.1-0.3 0-0.1-0.1-0.1-0.1-0.2 0-0.1 0-0.2 0-0.3 0-0.2 0-0.4-0.1-0.5 -0.4-0.7-1.2-0.9-2-0.8 -0.2 0-0.3 0.1-0.4 0.2 -0.2 0.1-0.1 0.2-0.3 0.2 -0.1 0-0.2 0.1-0.2 0.2C0.5-18.1 0.5-18.2 0.5-18.1c0 0 0 0 0 0" class="a"/><path d="M69.4-10.4c0 0.1 0 0.1 0 0.2 -0.1 0.1-0.1 0.1-0.2 0.1 0 0.1-0.1 0.3-0.1 0.4C69-9.7 69.2-9.5 69.2-9.4c0 0.1 0 0.1 0 0.2 0 0.1 0 0.3 0.1 0.4 0.1 0.2 0.3 0.4 0.4 0.5 0.2 0.1 0.4 0.6 0.6 0.6 0.2 0 0.4-0.1 0.5-0.1 0.2 0 0.4 0 0.6-0.1 0.2-0.1 0.1-0.3 0.3-0.4 0.1-0.1 0.3 0 0.4-0.1 0.2-0.1 0.3-0.3 0.4-0.5 0-0.1 0-0.1 0-0.2 0-0.1 0.1-0.2 0.1-0.3 0-0.1-0.1-0.1-0.1-0.2 0-0.1 0-0.2 0-0.3 0-0.2 0-0.4-0.1-0.5 -0.4-0.7-1.2-0.9-2-0.8 -0.2 0-0.3 0.1-0.4 0.2 -0.2 0.1-0.1 0.2-0.3 0.2 -0.1 0-0.2 0.1-0.2 0.2 0 0.1 0 0.1 0 0.2 0 0 0 0 0 0" class="a"/><path d="M61.8-10.4c0 0.1 0 0.1 0 0.2 -0.1 0.1-0.1 0.1-0.2 0.1 0 0.1-0.1 0.3-0.1 0.4 -0.2 0.1 0 0.2 0 0.4 0 0.1 0 0.1 0 0.2 0 0.1 0 0.3 0.1 0.4 0.1 0.2 0.3 0.4 0.4 0.5 0.2 0.1 0.4 0.6 0.6 0.6 0.2 0 0.4-0.1 0.5-0.1 0.2 0 0.4 0 0.6-0.1 0.2-0.1 0.1-0.3 0.3-0.4 0.1-0.1 0.3 0 0.4-0.1 0.2-0.1 0.3-0.3 0.4-0.5 0-0.1 0-0.1 0-0.2 0-0.1 0.1-0.2 0.1-0.3 0-0.1-0.1-0.1-0.1-0.2 0-0.1 0-0.2 0-0.3 0-0.2 0-0.4-0.1-0.5 -0.4-0.7-1.2-0.9-2-0.8 -0.2 0-0.3 0.1-0.4 0.2 -0.2 0.1-0.1 0.2-0.3 0.2 -0.1 0-0.2 0.1-0.2 0.2 0 0.1 0 0.1 0 0.2 0 0 0 0 0 0" class="a"/><path d="M54.1-10.4c0 0.1 0 0.1 0 0.2 -0.1 0.1-0.1 0.1-0.2 0.1 0 0.1-0.1 0.3-0.1 0.4 -0.2 0.1 0 0.2 0 0.4 0 0.1 0 0.1 0 0.2 0 0.1 0 0.3 0.1 0.4 0.1 0.2 0.3 0.4 0.4 0.5 0.2 0.1 0.4 0.6 0.6 0.6 0.2 0 0.4-0.1 0.5-0.1 0.2 0 0.4 0 0.6-0.1 0.2-0.1 0.1-0.3 0.3-0.4 0.1-0.1 0.3 0 0.4-0.1 0.2-0.1 0.3-0.3 0.4-0.5 0-0.1 0-0.1 0-0.2 0-0.1 0.1-0.2 0.1-0.3 0-0.1-0.1-0.1-0.1-0.2 0-0.1 0-0.2 0-0.3 0-0.2 0-0.4-0.1-0.5 -0.4-0.7-1.2-0.9-2-0.8 -0.2 0-0.3 0.1-0.4 0.2 -0.2 0.1-0.1 0.2-0.3 0.2 -0.1 0-0.2 0.1-0.2 0.2 0 0.1 0 0.1 0 0.2 0 0 0 0 0 0" class="a"/><path d="M46.5-10.4c0 0.1 0 0.1 0 0.2 -0.1 0.1-0.1 0.1-0.2 0.1 0 0.1-0.1 0.3-0.1 0.4 -0.2 0.1 0 0.2 0 0.4 0 0.1 0 0.1 0 0.2 0 0.1 0 0.3 0.1 0.4 0.1 0.2 0.3 0.4 0.4 0.5 0.2 0.1 0.4 0.6 0.6 0.6 0.2 0 0.4-0.1 0.5-0.1 0.2 0 0.4 0 0.6-0.1 0.2-0.1 0.1-0.3 0.3-0.4 0.1-0.1 0.3 0 0.4-0.1 0.2-0.1 0.3-0.3 0.4-0.5 0-0.1 0-0.1 0-0.2 0-0.1 0.1-0.2 0.1-0.3 0-0.1-0.1-0.1-0.1-0.2 0-0.1 0-0.2 0-0.3 0-0.2 0-0.4-0.1-0.5 -0.4-0.7-1.2-0.9-2-0.8 -0.2 0-0.3 0.1-0.4 0.2 -0.2 0.1-0.1 0.2-0.3 0.2 -0.1 0-0.2 0.1-0.2 0.2 0 0.1 0 0.1 0 0.2 0 0 0 0 0 0" class="a"/><path d="M38.8-10.4c0 0.1 0 0.1 0 0.2 -0.1 0.1-0.1 0.1-0.2 0.1 0 0.1-0.1 0.3-0.1 0.4 -0.2 0.1 0 0.2 0 0.4 0 0.1 0 0.1 0 0.2 0 0.1 0 0.3 0.1 0.4 0.1 0.2 0.3 0.4 0.4 0.5 0.2 0.1 0.4 0.6 0.6 0.6 0.2 0 0.4-0.1 0.5-0.1 0.2 0 0.4 0 0.6-0.1 0.2-0.1 0.1-0.3 0.3-0.4 0.1-0.1 0.3 0 0.4-0.1 0.2-0.1 0.3-0.3 0.4-0.5 0-0.1 0-0.1 0-0.2 0-0.1 0.1-0.2 0.1-0.3 0-0.1-0.1-0.1-0.1-0.2 0-0.1 0-0.2 0-0.3 0-0.2 0-0.4-0.1-0.5 -0.4-0.7-1.2-0.9-2-0.8 -0.2 0-0.3 0.1-0.4 0.2 -0.2 0.1-0.1 0.2-0.3 0.2 -0.1 0-0.2 0.1-0.2 0.2 0 0.1 0 0.1 0 0.2 0 0 0 0 0 0" class="a"/><path d="M31.1-10.4c0 0.1 0 0.1 0 0.2 -0.1 0.1-0.1 0.1-0.2 0.1 0 0.1-0.1 0.3-0.1 0.4 -0.2 0.1 0 0.2 0 0.4 0 0.1 0 0.1 0 0.2 0 0.1 0 0.3 0.1 0.4 0.1 0.2 0.3 0.4 0.4 0.5 0.2 0.1 0.4 0.6 0.6 0.6 0.2 0 0.4-0.1 0.5-0.1 0.2 0 0.4 0 0.6-0.1 0.2-0.1 0.1-0.3 0.3-0.4 0.1-0.1 0.3 0 0.4-0.1 0.2-0.1 0.3-0.3 0.4-0.5 0-0.1 0-0.1 0-0.2 0-0.1 0.1-0.2 0.1-0.3 0-0.1-0.1-0.1-0.1-0.2 0-0.1 0-0.2 0-0.3 0-0.2 0-0.4-0.1-0.5 -0.4-0.7-1.2-0.9-2-0.8 -0.2 0-0.3 0.1-0.4 0.2 -0.2 0.1-0.1 0.2-0.3 0.2 -0.1 0-0.2 0.1-0.2 0.2 0 0.1 0 0.1 0 0.2 0 0 0 0 0 0" class="a"/><path d="M23.5-10.4c0 0.1 0 0.1 0 0.2 -0.1 0.1-0.1 0.1-0.2 0.1 0 0.1-0.1 0.3-0.1 0.4 -0.2 0.1 0 0.2 0 0.4 0 0.1 0 0.1 0 0.2 0 0.1 0 0.3 0.1 0.4 0.1 0.2 0.3 0.4 0.4 0.5 0.2 0.1 0.4 0.6 0.6 0.6 0.2 0 0.4-0.1 0.5-0.1 0.2 0 0.4 0 0.6-0.1 0.2-0.1 0.1-0.3 0.3-0.4 0.1-0.1 0.3 0 0.4-0.1 0.2-0.1 0.3-0.3 0.4-0.5 0-0.1 0-0.1 0-0.2 0-0.1 0.1-0.2 0.1-0.3 0-0.1-0.1-0.1-0.1-0.2 0-0.1 0-0.2 0-0.3 0-0.2 0-0.4-0.1-0.5 -0.4-0.7-1.2-0.9-2-0.8 -0.2 0-0.3 0.1-0.4 0.2 -0.2 0.1-0.1 0.2-0.3 0.2 -0.1 0-0.2 0.1-0.2 0.2 0 0.1 0 0.1 0 0.2 0 0 0 0 0 0" class="a"/><path d="M15.8-10.4c0 0.1 0 0.1 0 0.2 -0.1 0.1-0.1 0.1-0.2 0.1 0 0.1-0.1 0.3-0.1 0.4 -0.2 0.1 0 0.2 0 0.4 0 0.1 0 0.1 0 0.2 0 0.1 0 0.3 0.1 0.4 0.1 0.2 0.3 0.4 0.4 0.5 0.2 0.1 0.4 0.6 0.6 0.6 0.2 0 0.4-0.1 0.5-0.1 0.2 0 0.4 0 0.6-0.1C17.9-8 17.8-8.2 18-8.3c0.1-0.1 0.3 0 0.4-0.1 0.2-0.1 0.3-0.3 0.4-0.5 0-0.1 0-0.1 0-0.2 0-0.1 0.1-0.2 0.1-0.3 0-0.1-0.1-0.1-0.1-0.2 0-0.1 0-0.2 0-0.3 0-0.2 0-0.4-0.1-0.5 -0.4-0.7-1.2-0.9-2-0.8 -0.2 0-0.3 0.1-0.4 0.2 -0.2 0.1-0.1 0.2-0.3 0.2 -0.1 0-0.2 0.1-0.2 0.2 0 0.1 0 0.1 0 0.2 0 0 0 0 0 0" class="a"/><path d="M8.2-10.4c0 0.1 0 0.1 0 0.2 -0.1 0.1-0.1 0.1-0.2 0.1C7.9-10 7.9-9.8 7.9-9.7 7.7-9.7 7.9-9.5 7.9-9.4 7.9-9.4 7.8-9.3 7.8-9.2c0 0.1 0 0.3 0.1 0.4 0.1 0.2 0.3 0.4 0.4 0.5 0.2 0.1 0.4 0.6 0.6 0.6C9.1-7.7 9.3-7.8 9.5-7.8c0.2 0 0.4 0 0.6-0.1 0.2-0.1 0.1-0.3 0.3-0.4 0.1-0.1 0.3 0 0.4-0.1 0.2-0.1 0.3-0.3 0.4-0.5 0-0.1 0-0.1 0-0.2 0-0.1 0.1-0.2 0.1-0.3 0-0.1-0.1-0.1-0.1-0.2 0-0.1 0-0.2 0-0.3 0-0.2 0-0.4-0.1-0.5 -0.4-0.7-1.2-0.9-2-0.8 -0.2 0-0.3 0.1-0.4 0.2 -0.2 0.1-0.1 0.2-0.3 0.2 -0.1 0-0.2 0.1-0.2 0.2 0 0.1 0 0.1 0 0.2 0 0 0 0 0 0" class="a"/><path d="M0.5-10.4c0 0.1 0 0.1 0 0.2 -0.1 0.1-0.1 0.1-0.2 0.1C0.3-10 0.2-9.8 0.2-9.7 0.1-9.7 0.2-9.5 0.2-9.4c0 0.1 0 0.1 0 0.2 0 0.1 0 0.3 0.1 0.4C0.3-8.7 0.5-8.5 0.7-8.3c0.2 0.1 0.4 0.6 0.6 0.6C1.5-7.7 1.7-7.8 1.8-7.8 2-7.9 2.2-7.8 2.4-7.9c0.2-0.1 0.1-0.3 0.3-0.4 0.1-0.1 0.3 0 0.4-0.1 0.2-0.1 0.3-0.3 0.4-0.5C3.5-8.9 3.5-9 3.5-9.1c0-0.1 0.1-0.2 0.1-0.3 0-0.1-0.1-0.1-0.1-0.2 0-0.1 0-0.2 0-0.3 0-0.2 0-0.4-0.1-0.5 -0.4-0.7-1.2-0.9-2-0.8 -0.2 0-0.3 0.1-0.4 0.2 -0.2 0.1-0.1 0.2-0.3 0.2 -0.1 0-0.2 0.1-0.2 0.2 0 0.1 0 0.1 0 0.2 0 0 0 0 0 0" class="a"/><path d="M69.4-2.8c0 0.1 0 0.1 0 0.2C69.4-2.5 69.3-2.5 69.2-2.5c-0.1 0.1-0.1 0.3-0.1 0.4C69-2 69.2-1.9 69.2-1.7c0 0.1 0 0.1 0 0.2 0 0.1 0 0.3 0.1 0.4 0.1 0.2 0.3 0.4 0.4 0.5 0.2 0.1 0.4 0.6 0.6 0.6C70.4 0 70.6-0.1 70.8-0.2c0.2 0 0.4 0 0.6-0.1 0.2-0.1 0.1-0.3 0.3-0.4 0.1-0.1 0.3 0 0.4-0.1 0.2-0.1 0.3-0.3 0.4-0.5 0-0.1 0-0.1 0-0.2 0-0.1 0.1-0.2 0.1-0.3 0-0.1-0.1-0.1-0.1-0.2 0-0.1 0-0.2 0-0.3 0-0.2 0-0.4-0.1-0.5 -0.4-0.7-1.2-0.9-2-0.8 -0.2 0-0.3 0.1-0.4 0.2 -0.2 0.1-0.1 0.2-0.3 0.2 -0.1 0-0.2 0.1-0.2 0.2 0 0.1 0 0.1 0 0.2 0 0 0 0 0 0" class="a"/><path d="M61.8-2.8c0 0.1 0 0.1 0 0.2C61.7-2.5 61.6-2.5 61.6-2.5c0 0.1-0.1 0.3-0.1 0.4 -0.2 0.1 0 0.2 0 0.4 0 0.1 0 0.1 0 0.2 0 0.1 0 0.3 0.1 0.4 0.1 0.2 0.3 0.4 0.4 0.5 0.2 0.1 0.4 0.6 0.6 0.6C62.7 0 62.9-0.1 63.1-0.2c0.2 0 0.4 0 0.6-0.1 0.2-0.1 0.1-0.3 0.3-0.4 0.1-0.1 0.3 0 0.4-0.1 0.2-0.1 0.3-0.3 0.4-0.5 0-0.1 0-0.1 0-0.2 0-0.1 0.1-0.2 0.1-0.3 0-0.1-0.1-0.1-0.1-0.2 0-0.1 0-0.2 0-0.3 0-0.2 0-0.4-0.1-0.5 -0.4-0.7-1.2-0.9-2-0.8 -0.2 0-0.3 0.1-0.4 0.2 -0.2 0.1-0.1 0.2-0.3 0.2C61.9-3.1 61.8-3 61.8-2.9c0 0.1 0 0.1 0 0.2 0 0 0 0 0 0" class="a"/><path d="M54.1-2.8c0 0.1 0 0.1 0 0.2C54-2.5 54-2.5 53.9-2.5c0 0.1-0.1 0.3-0.1 0.4 -0.2 0.1 0 0.2 0 0.4 0 0.1 0 0.1 0 0.2 0 0.1 0 0.3 0.1 0.4 0.1 0.2 0.3 0.4 0.4 0.5 0.2 0.1 0.4 0.6 0.6 0.6C55.1 0 55.3-0.1 55.4-0.2c0.2 0 0.4 0 0.6-0.1 0.2-0.1 0.1-0.3 0.3-0.4 0.1-0.1 0.3 0 0.4-0.1 0.2-0.1 0.3-0.3 0.4-0.5 0-0.1 0-0.1 0-0.2 0-0.1 0.1-0.2 0.1-0.3 0-0.1-0.1-0.1-0.1-0.2 0-0.1 0-0.2 0-0.3 0-0.2 0-0.4-0.1-0.5 -0.4-0.7-1.2-0.9-2-0.8 -0.2 0-0.3 0.1-0.4 0.2 -0.2 0.1-0.1 0.2-0.3 0.2C54.3-3.1 54.1-3 54.1-2.9c0 0.1 0 0.1 0 0.2 0 0 0 0 0 0" class="a"/><path d="M46.5-2.8c0 0.1 0 0.1 0 0.2 -0.1 0.1-0.1 0.1-0.2 0.1 0 0.1-0.1 0.3-0.1 0.4 -0.2 0.1 0 0.2 0 0.4 0 0.1 0 0.1 0 0.2 0 0.1 0 0.3 0.1 0.4 0.1 0.2 0.3 0.4 0.4 0.5 0.2 0.1 0.4 0.6 0.6 0.6C47.4 0 47.6-0.1 47.8-0.2c0.2 0 0.4 0 0.6-0.1 0.2-0.1 0.1-0.3 0.3-0.4 0.1-0.1 0.3 0 0.4-0.1 0.2-0.1 0.3-0.3 0.4-0.5 0-0.1 0-0.1 0-0.2 0-0.1 0.1-0.2 0.1-0.3 0-0.1-0.1-0.1-0.1-0.2 0-0.1 0-0.2 0-0.3 0-0.2 0-0.4-0.1-0.5 -0.4-0.7-1.2-0.9-2-0.8 -0.2 0-0.3 0.1-0.4 0.2 -0.2 0.1-0.1 0.2-0.3 0.2C46.6-3.1 46.5-3 46.5-2.9c0 0.1 0 0.1 0 0.2 0 0 0 0 0 0" class="a"/><path d="M38.8-2.8c0 0.1 0 0.1 0 0.2 -0.1 0.1-0.1 0.1-0.2 0.1 0 0.1-0.1 0.3-0.1 0.4 -0.2 0.1 0 0.2 0 0.4 0 0.1 0 0.1 0 0.2 0 0.1 0 0.3 0.1 0.4 0.1 0.2 0.3 0.4 0.4 0.5 0.2 0.1 0.4 0.6 0.6 0.6C39.8 0 40-0.1 40.1-0.2c0.2 0 0.4 0 0.6-0.1 0.2-0.1 0.1-0.3 0.3-0.4 0.1-0.1 0.3 0 0.4-0.1 0.2-0.1 0.3-0.3 0.4-0.5 0-0.1 0-0.1 0-0.2 0-0.1 0.1-0.2 0.1-0.3 0-0.1-0.1-0.1-0.1-0.2 0-0.1 0-0.2 0-0.3 0-0.2 0-0.4-0.1-0.5 -0.4-0.7-1.2-0.9-2-0.8 -0.2 0-0.3 0.1-0.4 0.2 -0.2 0.1-0.1 0.2-0.3 0.2C38.9-3.1 38.8-3 38.8-2.9c0 0.1 0 0.1 0 0.2 0 0 0 0 0 0" class="a"/><path d="M31.1-2.8c0 0.1 0 0.1 0 0.2 -0.1 0.1-0.1 0.1-0.2 0.1 0 0.1-0.1 0.3-0.1 0.4 -0.2 0.1 0 0.2 0 0.4 0 0.1 0 0.1 0 0.2 0 0.1 0 0.3 0.1 0.4 0.1 0.2 0.3 0.4 0.4 0.5 0.2 0.1 0.4 0.6 0.6 0.6C32.1 0 32.3-0.1 32.5-0.2c0.2 0 0.4 0 0.6-0.1 0.2-0.1 0.1-0.3 0.3-0.4 0.1-0.1 0.3 0 0.4-0.1 0.2-0.1 0.3-0.3 0.4-0.5 0-0.1 0-0.1 0-0.2 0-0.1 0.1-0.2 0.1-0.3 0-0.1-0.1-0.1-0.1-0.2 0-0.1 0-0.2 0-0.3 0-0.2 0-0.4-0.1-0.5 -0.4-0.7-1.2-0.9-2-0.8 -0.2 0-0.3 0.1-0.4 0.2 -0.2 0.1-0.1 0.2-0.3 0.2C31.3-3.1 31.1-3 31.1-2.9c0 0.1 0 0.1 0 0.2 0 0 0 0 0 0" class="a"/><path d="M23.5-2.8c0 0.1 0 0.1 0 0.2 -0.1 0.1-0.1 0.1-0.2 0.1 0 0.1-0.1 0.3-0.1 0.4 -0.2 0.1 0 0.2 0 0.4 0 0.1 0 0.1 0 0.2 0 0.1 0 0.3 0.1 0.4 0.1 0.2 0.3 0.4 0.4 0.5 0.2 0.1 0.4 0.6 0.6 0.6C24.4 0 24.6-0.1 24.8-0.2c0.2 0 0.4 0 0.6-0.1 0.2-0.1 0.1-0.3 0.3-0.4 0.1-0.1 0.3 0 0.4-0.1 0.2-0.1 0.3-0.3 0.4-0.5 0-0.1 0-0.1 0-0.2 0-0.1 0.1-0.2 0.1-0.3 0-0.1-0.1-0.1-0.1-0.2 0-0.1 0-0.2 0-0.3 0-0.2 0-0.4-0.1-0.5 -0.4-0.7-1.2-0.9-2-0.8 -0.2 0-0.3 0.1-0.4 0.2 -0.2 0.1-0.1 0.2-0.3 0.2 -0.1 0-0.2 0.1-0.2 0.2 0 0.1 0 0.1 0 0.2 0 0 0 0 0 0" class="a"/><path d="M15.8-2.8c0 0.1 0 0.1 0 0.2 -0.1 0.1-0.1 0.1-0.2 0.1 0 0.1-0.1 0.3-0.1 0.4 -0.2 0.1 0 0.2 0 0.4 0 0.1 0 0.1 0 0.2 0 0.1 0 0.3 0.1 0.4 0.1 0.2 0.3 0.4 0.4 0.5 0.2 0.1 0.4 0.6 0.6 0.6C16.8 0 17-0.1 17.1-0.2c0.2 0 0.4 0 0.6-0.1 0.2-0.1 0.1-0.3 0.3-0.4 0.1-0.1 0.3 0 0.4-0.1 0.2-0.1 0.3-0.3 0.4-0.5 0-0.1 0-0.1 0-0.2 0-0.1 0.1-0.2 0.1-0.3 0-0.1-0.1-0.1-0.1-0.2 0-0.1 0-0.2 0-0.3 0-0.2 0-0.4-0.1-0.5 -0.4-0.7-1.2-0.9-2-0.8 -0.2 0-0.3 0.1-0.4 0.2 -0.2 0.1-0.1 0.2-0.3 0.2 -0.1 0-0.2 0.1-0.2 0.2 0 0.1 0 0.1 0 0.2C15.8-2.7 15.8-2.8 15.8-2.8" class="a"/><path d="M8.2-2.8c0 0.1 0 0.1 0 0.2C8.1-2.5 8-2.5 8-2.5c0 0.1-0.1 0.3-0.1 0.4 -0.2 0.1 0 0.2 0 0.4C7.9-1.7 7.8-1.6 7.8-1.6c0 0.1 0 0.3 0.1 0.4 0.1 0.2 0.3 0.4 0.4 0.5 0.2 0.1 0.4 0.6 0.6 0.6C9.1 0 9.3-0.1 9.5-0.2c0.2 0 0.4 0 0.6-0.1 0.2-0.1 0.1-0.3 0.3-0.4 0.1-0.1 0.3 0 0.4-0.1 0.2-0.1 0.3-0.3 0.4-0.5 0-0.1 0-0.1 0-0.2 0-0.1 0.1-0.2 0.1-0.3 0-0.1-0.1-0.1-0.1-0.2 0-0.1 0-0.2 0-0.3 0-0.2 0-0.4-0.1-0.5 -0.4-0.7-1.2-0.9-2-0.8C9-3.5 8.8-3.4 8.7-3.4c-0.2 0.1-0.1 0.2-0.3 0.2C8.3-3.1 8.2-3 8.2-2.9 8.2-2.8 8.2-2.9 8.2-2.8 8.2-2.7 8.1-2.8 8.1-2.8" class="a"/><path d="M0.5-2.8c0 0.1 0 0.1 0 0.2C0.4-2.5 0.4-2.5 0.3-2.5 0.3-2.4 0.2-2.2 0.2-2.1 0.1-2 0.2-1.9 0.2-1.7c0 0.1 0 0.1 0 0.2 0 0.1 0 0.3 0.1 0.4C0.3-1 0.5-0.8 0.7-0.7c0.2 0.1 0.4 0.6 0.6 0.6C1.5 0 1.7-0.1 1.8-0.2 2-0.2 2.2-0.2 2.4-0.2c0.2-0.1 0.1-0.3 0.3-0.4 0.1-0.1 0.3 0 0.4-0.1 0.2-0.1 0.3-0.3 0.4-0.5C3.5-1.3 3.5-1.3 3.5-1.4c0-0.1 0.1-0.2 0.1-0.3 0-0.1-0.1-0.1-0.1-0.2 0-0.1 0-0.2 0-0.3 0-0.2 0-0.4-0.1-0.5 -0.4-0.7-1.2-0.9-2-0.8C1.3-3.5 1.2-3.4 1-3.4c-0.2 0.1-0.1 0.2-0.3 0.2C0.6-3.1 0.5-3 0.5-2.9 0.5-2.8 0.5-2.9 0.5-2.8 0.5-2.7 0.5-2.8 0.5-2.8" class="a"/></pattern><path d="M173.5 77.7c2.9-3.6 5-10.5 5-13.7 -4.9-0.7-12 3.8-13 4.8 0.4-1.9 0.9-3.7 0.6-5 -3.5 0.8-8.1 3.8-9.3 4.6 0-1.5-0.3-2.4-0.7-3.5 -5.7 3.2-10 10-12 12 -0.2-0.9-0.5-1.5-0.9-3.2 -3.9 4.1-10.1 12-12.5 14.5 -3 3.1-5.6 4.5-7.5 3.3 -1.1-0.7-2.7-1.5-2.1-5.3 0.5-2.8 4.5-10.4 4.8-14.5 -1.8 0-4.7 0.5-6.3 0.9 4.1-8.8 5.1-14.8 4.9-19.2 -4.4 1-6.5 2.2-9.5 3.6 1-5.8 3.5-16.7 0.3-24.2 -5 2.2-7.4 5.1-9.4 7.6 1.9-11 0.5-18.5-0.9-21.9 -2.8 1-3.8 1.7-5.1 3.8 -1.5-6.6-3.9-12.4-7.3-15.7 -3.2 3.5-5.8 8.6-7.4 15.5l0.2 0.6c-1.6-2.2-2.8-3-5.1-4.6 -1.4 3.4-3.1 10.4-1.8 22.2 -2-2.5-4-5.3-9.3-7.6 -2.6 7.9-1.5 18.7-0.2 24.2 -3.1-1.4-5-3.1-9.4-4 0.1 3.8-0.1 11.1 4 19.9 -1.7-0.4-4.5-1.3-6.3-1.3 0.5 4.6 3.4 10.7 4.3 13.4 1 2.7 0.4 5.4-1.3 6.6 -1.7 1.2-5.2-0.2-7.5-2.7 -2.4-2.5-9.7-11.1-12.8-15 -0.4 1.7-1.2 3.2-1 5.3 -1.2-1.7-5.7-8.3-11.5-11.4 -0.4 1.1-0.8 2.7-0.6 4.1 -1.2-0.9-5.5-4.4-9-5.2 -0.3 1-0.5 2.4-0.3 3.3 -1-1-8.3-4.4-12.1-3.9 -0.5 2 2.1 10.5 5 14.1 -1.8 0.1-3.1 0.2-4.5 0.9 1 3.5 4.6 11.4 10.6 18.5 -2.5-0.2-5.3 0.1-7.4 0.8 5 9 12.7 17.2 14.5 18.6 -2 0.1-5.6 0.1-7.5 1.4 2.6 3.8 9.1 9.9 14.5 13.5 -1.8 0.3-4.1 0.4-5.8 1.1 1.3 1.8 9.4 9.3 18.7 13.1 -2.1 1-8.5 4.1-12 7.8 2.8 2.5 7 5.1 10.5 6.9 -2.4 0.4-10.9 4.6-14.4 7.8 2.7 1.6 7.4 3.4 10.3 3.8 -2.7 0.8-13.1 8.3-17.1 13.6 3.7 1.3 16 1.9 25.6-0.3 -0.5 1.3-1.4 4.2-1.5 5.9 6.8 0.5 10.8 1.4 25.5-2.9 -2.2 2.3-4.3 5.7-4.2 7.9 6.3-0.3 12.6-2 17.8-4.6 3-0.7 3.9 0.2 4.6 1.6 0.7 1.5 0.6 1.8 1.4 4.8 0.9 3.7 1.8 6.4 3.4 8.5l6.2-4.7c-5-5.6-6.1-9.5-5.4-10.7 0.7-1.1 1.4-1.4 4.7 0.4 4.4 2.3 16.1 4.1 20.4 3.6 -1.1-2.5-2.9-5.3-4.9-7.4 14.7 4.3 23.3 3.5 26.3 2.1 -0.9-2.8-2.7-5.6-4.8-7.6 15 2.6 21.3 0.2 25-1.1 -1.4-2.7-14.2-11.7-16.9-12.5 2.8-0.3 8.3-2.5 10-4.2 -3.5-3.1-9.5-5.7-13.8-7.3 3.3-1.1 7.5-4.5 10.3-7 -3.2-3.8-9.5-6.7-11.6-7.7 8.9-4 17.4-11.4 18.7-13.7 -1.9-1.2-3.5-0.8-5.3-1.1 5.6-4.3 10.9-9.5 13.5-13.3 -1.8-1.3-4.3-1.7-7-1.9 1.8-1.4 10.1-9 15.4-17.7 -1.8-0.5-4.8-1.2-7.3-1 6.3-6.5 10.4-14.2 11.7-17.9C177 77.7 174.8 77.9 173.5 77.7zM170 99.4c-1 1.8-6.6 9.5-14.5 16.8 2.1 0.4 4.2 1 6.1 2.2 -2.1 3.1-7.4 8-13.6 13.1 1.4 0.5 2.5 0.6 5 1.2 -1.6 1.5-8.2 7.4-17.5 12.4 3.8 2.2 8.4 4.9 10.8 7.7 -2.1 2-6.1 5.1-9.7 7.1 3.5 1.7 9.1 4.5 12.1 7.2 -1.9 1-4.9 2.8-8.6 3.3 1.8 1.5 12 8.6 14.7 11.9 -3 0.6-15.5 1.5-22.4 0.1 1.9 2.8 4.2 6.5 4.6 7.9 -4.5 0.9-14.6 1.2-25.9-1.9 1.6 1.9 3.5 4.4 4.5 6.7 -7 0.7-12.9-1.2-16.7-2.7 -2.2-0.9-4.1-1.1-5.2 0 -1 1-1 2.8 0.7 7.4 0.5 1.3 1.3 2.3 2.3 4.1l-2.3 1.9c-1.6-2.1-2.9-5.4-4.1-10.1 -1-3.8-5.4-3.4-8.3-2.3 -3.8 1.5-7.6 1.8-12.6 1.9 1-2.4 3.3-4.8 4.8-7 -9.5 2.9-18.3 4.6-26.2 3.1 0-1.4 0-3.6 1.5-5.8 -8.2 1.6-20 1-22.9 0.4 2.7-3.2 12.2-11.1 14.3-12.2 -2.5-0.6-6.5-2.2-8.6-3.3 3.9-3.1 8.9-5.7 12-7.8 -3.5-2.1-7.3-4.6-9-6.6 3.2-3.6 6.6-5.3 10.7-8 -10.2-4.8-15.2-10.1-16.9-11.6 1.2-0.9 3.4-1.3 4.6-1.9 -5.8-4.3-11.2-9.4-13.3-12.5 1.2-1.5 4.2-1.6 6.3-2.1 -7.8-7.3-12.3-15-13.6-17.6 2.1-0.6 3.2-1.1 6.3-1.2 -4.7-6.2-9.3-15.9-10-18.4 1.2-0.6 2.2-0.8 3.6-0.9 -2.5-4.3-4.1-8.5-3.8-12 2.5 0.2 6.9 1.3 10.3 3.8 0.4-0.8 0.1-1.5 0.2-2.8 2.4 0.3 5.6 2.1 9.1 4.6 0.1-1.1 0.2-2 0.5-3 2.8 0.9 9.3 8.9 11 10.5 0.3-1 0.6-2.7 1.1-3.9 1.7 2.3 6.6 8.1 13.2 13 2 1.5 4.6 1.7 6.3 0.8 1.9-1.1 3-3.3 2.7-6.1 -0.4-4.1-2.7-8.9-2.7-11.8 1.9-0.4 4.1 0.4 5.6 0.9 -2.4-5.7-3.7-14.3-3.8-18.2 2.5 0.4 4 1 8.3 2.5 -0.6-10.8-0.2-16.7 0.7-21.3 3 1 5.3 3 8.5 5.4 -0.2-7.6 1.4-17.3 2.3-20.9 1.9 1.1 2.6 2.1 3.8 3.8 2-7.2 5-12 6.8-14.1 1.8 1.7 5.9 8.8 6.2 13.7 1.5-1.9 2.3-2.9 4.1-3.7 1.9 3.9 1.9 13.7 1.3 21.3 2.9-3.2 5.8-5.2 8.8-6.2 1.3 4 1.7 10.4 0 21.7 4.3-1.5 6.2-2.2 8.7-2.6 -0.1 4-2.4 12-4.8 17.7 1.5 0 5-0.6 6.2-0.6 -1.9 5.8-6.2 16.3-1 18.3 1.7 0.7 4.5 0.6 6.9-1.2 6.7-5 12.4-12 13.2-13.5 0.1 1.9 0.7 2.5 1 3.5 1.5-1.8 8.7-11.1 11.7-11.6 0.3 1 0.5 2.1 0.4 2.8 2.5-2 6.3-4.8 8.6-5.1 0.1 1.3-0.2 4.3-0.4 5 4.7-4.2 8-4.6 11.9-5.3 0 3.4-2 8-4.5 12.2 1.1 0.3 2.5-0.1 3.8 0.7 -1 2.4-5.5 11.1-11 17.6C166.2 98.3 167.9 98.8 170 99.4z" class="a"/><polygon points="116 150.3 110 150.3 110 135.9 106.2 135.9 106.2 153.5 116 153.5 " class="a"/><polygon points="136.5 109.1 125.3 105.4 124.2 108.6 128.3 109.9 122.5 127.2 125.8 128.3 131.7 111 135.5 112.2 " class="a"/><polygon points="110.1 110.7 113.5 125.1 117.2 125.8 120.8 104.5 117.1 103.9 115 116.2 111.9 103 107.7 102.3 104.1 123.5 107.8 124.1 " class="a"/><polygon points="53.9 132.7 45.8 116.4 49.3 114.6 47.8 111.6 37.3 117 38.8 119.9 42.6 118 50.7 134.3 " class="a"/><polygon points="119.7 153.5 130.1 153.5 130.1 150.2 123.4 150.2 123.4 146.1 128 146.1 128 142.5 123.4 142.5 123.4 139.2 130.1 139.2 130.1 136 123.7 136 123.7 135.9 119.7 135.9 " class="a"/><polygon points="77.4 162.2 77.4 158.9 66.9 158.9 66.9 176.4 77.4 176.4 77.4 173.2 70.6 173.2 70.6 169 75.2 169 75.2 165.5 70.6 165.5 70.6 162.2 " class="a"/><polygon points="113.3 162.4 113.3 158.9 103.1 158.9 103.1 176.4 106.9 176.4 106.9 169.8 111.6 169.8 111.6 166.6 106.9 166.6 106.9 162.4 " class="a"/><polygon points="123 162.2 127.8 162.2 127.8 164.3 131.3 164.3 131.3 161.2 129 158.9 122.1 158.9 119.5 161.5 119.5 166.3 128.1 170.3 128.1 173.2 123.1 173.2 123.1 170.7 119.5 170.7 119.5 173.9 122.1 176.4 129 176.4 131.6 173.9 131.6 168.3 123 164.3 " class="a"/><path d="M100.9 104.4l-2.3-2.4 -8.5 0 -2.3 2.4 -0.1 16.7 2.3 2.4 8.5 0 2.3-2.4L100.9 104.4zM97.5 120l-6.3 0 0-14.5 6.3 0L97.5 120z" class="a"/><path d="M78 125l-1.3-7.4 1.1-0.2 3.5 7 3.8-0.7 -3.4-6.8 0.1 0 2.2-3.1 -1.7-9.5 -2.8-2 -8.9 1.6 3.9 21.7L78 125zM79 106.1l1.3 7.3 -4.3 0.7 -1.3-7.3L79 106.1z" class="a"/><path d="M60.8 129.5l8.1-2.5 1.5-3 -4.9-16 -2.9-1.6 -8.1 2.5 -1.5 3 4.9 16L60.8 129.5zM62.7 110.1l4.2 13.9 -6 1.8 -4.2-13.9L62.7 110.1z" class="a"/><path d="M83.2 153.5h3.8l-5.4-17.3h-4.3l-5.4 17.3h3.8l0.6-1.9h6.2L83.2 153.5zM77.3 148.4l2.1-7.6 2.3 7.6H77.3z" class="a"/><path d="M87.1 174.4h6.2l0.6 2.1h3.8l-5.4-17.5h-4.3l-5.4 17.5h3.8L87.1 174.4zM90 163.6l2.3 7.6h-4.4L90 163.6z" class="a"/><path d="M100.8 146.1v-7.5l-2.9-2.6h-8.1v17.5h3.6v-5.1h4.8L100.8 146.1zM97.3 145.1h-3.9v-5.9h3.9V145.1z" class="a"/><path d="M143.3 111.7l-3.1 1.1 -7.6 14.9 0.9 3.2 7.5 3.9 3.1-1.1 7.6-14.9 -0.9-3.2L143.3 111.7zM141.6 131.1l-5.6-2.9 6.6-12.9 5.6 2.9L141.6 131.1z" class="a"/><polygon points="52.5 158.9 52.5 176.4 62.2 176.4 62.2 173.2 56.3 173.2 56.3 158.9 " class="a"/><polygon points="69.5 153.5 69.5 136 66.8 136 63 144.8 59.5 136 56.8 136 56.8 153.5 60.2 153.5 60.2 145.4 62.8 151.2 63.6 151.1 66.1 145.4 66.1 153.5 " class="a"/><path d="M91.2 90.1l-0.1 5.4 1.5 1.5 0-6.6c2.9-3.3 9.2-10.2 10.7-14.7 0 0 0.1-0.5-0.2-0.5 -0.8 0-0.2 2.9-10.5 13.3l0.1-21.6 4.3-6.7 0.1-0.4 -4.4 5.2 0.1-27.4 -0.7-0.4 -0.3 17.4 -2.9-4.3 -0.2 0.1 3 6.8L91.4 76.1c-4.7-4.7-5.6-9.7-6.2-9.7 -0.3 0-0.2 0.5-0.2 0.5 0.2 3.2 5.2 9.9 6.4 11.4l-0.2 9.8c-6.3-4.3-9.7-13.6-10.3-13.6 -0.2 0-0.1 0.3-0.1 0.3C83 83.2 88.1 87.5 91.2 90.1z" class="a"/><path d="M43.1 106l-2.6-2.8c0.1-0.7 0.3-2.2 0.3-4 0-6.1-2.7-9.7-2.7-9.7l-0.7 0.1c0 0 2.1 4.4 2.1 9.8 0 1.2-0.1 2.1-0.2 2.6L26.3 88c-0.8-4.5-2.8-7.9-2.8-7.9l-0.9-0.1c0 0 1.3 3.1 2.2 6.3L14.1 74.9l-1-0.3 21.4 24.1c-4.4-0.4-8.3-1.6-8.3-1.6l0.4 1.1c0 0 4.4 1.3 8.9 1.6l5.5 6.2H43.1z" class="a"/><path d="M171.5 71.7c-5.8 4.8-9.8 9.1-13.4 13.4 0.4-2.4 2-6.4 2-6.4h-0.6c0 0-1.7 2.7-2.9 8.1 -3.8 4.6-7.4 9.2-12.4 14.3 -1-6.4 1.4-12 1.4-12l-0.8-0.1c0 0-2.8 4.7-2.2 13.6 -1.3 1.3-2.6 2.6-4.1 3.9l0.7 1.3c2.9-2.7 5.4-5.2 7.6-7.7 5.2-1.1 12.2-5.5 12.2-5.5v-0.8c0 0-6.9 3.9-10.8 4.7 7.6-8.7 12.1-16 22.9-25.3L171.5 71.7z" class="a"/><path d="M122.5 181.1c-5.1 0-9.4 2-10.5 2.6 -2.6-0.8-5.4-1.6-8.9-1.6 -6.1 0-10.6 3.4-11.8 4.4 -3.8-1.7-10.5-3.5-21-3.3 -18.7 0.5-21.8-2.8-21.8-2.8 -0.8-0.1-0.6 0.4-0.6 0.4 1.4 0.9 2.8 2.3 9.3 3 -3.7 2-6.8 1.5-6.8 2.3 0 0.3 0.3 0.3 0.3 0.3 5.2-0.2 7.9-1.9 8.6-2.4 2.7 0.2 6.2 0.2 10.6 0.1 17.7-0.5 24.8 5.8 24.8 5.8l0.8-1c0 0-0.9-0.8-3-1.9 0.8-0.8 4.4-3.9 10.5-3.9 7 0 12.8 3.1 16.2 2.6 0 0 1.3-0.5 0.3-0.5 -2 0-3.9-0.5-5.9-1.1 0.6-0.4 3.1-1.7 8.5-2.3 0 0 1-0.2 1-0.5C123.1 181.3 123.2 181.1 122.5 181.1z" class="a"/><path d="M175.8 92.8c5.9-7.5 8.5-16.9 8.5-16.9l-3.5-1.7c3.3-6.7 2.4-14.2 2.4-14.2 -7.4-2.1-12.9 0.6-12.9 0.6l-0.6-2.4c-5.5 0.6-10 3-10 3l-1.3-3.1c-8.3 3.6-12.2 8.9-12.2 8.9l-0.6-2.8c-8.6 8-15.1 17.7-19.6 21.7 5.4-10.8 5.1-18.8 5.1-18.8l-4.1-0.1c3.6-8.2 1.9-19.3 1.9-19.3 -3.8 0.6-7.9 1.7-7.9 1.7 2.7-12.8-3.3-22.9-3.3-22.9 -3.3 1.2-6.2 2.8-6.2 2.8 0-9.4-3.9-16.9-3.9-16.9l-5.1 2C98.9 4.6 92.3 0 92.3 0c-6.3 4.9-9.7 14.1-9.7 14.1 -1-0.9-4.5-3.1-4.5-3.1 -5.2 11.2-5 18.8-5 18.8 -2.6-1.6-7-3.2-7-3.2 -5.1 12.1-3.2 22.5-3.2 22.5 -3.6-1-8.3-1.8-8.3-1.8 -0.4 15 1.7 19.7 1.7 19.7h-4.6c0 8.4 5.1 19.6 5.1 19.6 -4.9-4.8-19.2-23.2-19.2-23.2l-1.3 5.5c-3.4-3.8-11.5-7.6-11.5-7.6l-1.1 3.1c-3.7-2.4-9.1-3-9.1-3l-0.7 1.9c-6.3-3-12.4-1.3-12.4-1.3 -3.1 6.4 1.5 15.3 1.5 15.3L0 78.8c1.9 8.9 7.6 17.2 7.6 17.2l-5.7 1.8c3.9 8.5 12.1 18.4 12.1 18.4l-4.6 3.2c5.1 8.3 10.7 12.6 10.7 12.6l-2.7 1.3c5.1 8.7 15.9 15.1 15.9 15.1 -4.2 2.3-8.7 7.9-8.7 7.9 1.8 2 6.9 6 6.9 6 -7.2 3.9-11.9 9.2-11.9 9.2 1.9 1.4 7.2 4.4 7.2 4.4 -7.5 5.1-13.9 14.6-13.9 14.6 12.4 5.4 27.2 3.1 27.2 3.1l-0.4 4.5c13.5 2 21.7-0.2 21.7-0.2l0.3 5.8c14.7 0 23-4.6 23-4.6C85.8 208.3 92.2 216 92.2 216l14.3-10.8 -4-4.7c11.4 3.7 23.9 1.3 23.9 1.3l-2-4.3c14.2 3.2 22.3-2.5 22.3-2.5l-1.6-4.3c10.3 1.3 22.6-4.3 22.6-4.3 -2.9-8.8-12.9-14.2-12.9-14.2 2.9-1.5 6.2-5.4 6.2-5.4 -4.7-5.4-10.5-7.8-10.5-7.8 1.9-1.2 6.8-5.9 6.8-5.9 -3.8-5.2-8.4-8.2-8.4-8.2 13.7-8.7 15.1-15.4 15.1-15.4l-2.1-1.3c6.3-5.2 10.5-12.5 10.5-12.5l-4.3-3c7.1-7 13.4-18.4 13.4-18.4L175.8 92.8zM158.6 115.1c2.7 0.2 5.2 0.6 7.1 1.9 -2.6 3.8-8 9-13.5 13.3 1.8 0.3 3.4-0.2 5.3 1.1 -1.2 2.3-9.8 9.7-18.7 13.7 2.1 1 8.4 3.9 11.6 7.7 -2.8 2.5-7 5.8-10.3 7 4.3 1.6 10.3 4.2 13.8 7.3 -1.7 1.7-7.2 3.9-10 4.2 2.7 0.8 15.6 9.8 16.9 12.5 -3.7 1.3-10 3.8-25 1.1 2.1 1.9 3.8 4.8 4.8 7.6 -3.1 1.4-11.7 2.1-26.3-2.1 2 2.1 3.8 4.9 4.9 7.4 -4.4 0.5-16-1.2-20.4-3.6 -3.3-1.8-4-1.5-4.7-0.4 -0.7 1.1 0.4 5.1 5.4 10.7l-6.2 4.7c-1.6-2.2-2.5-4.8-3.4-8.5 -0.7-3-0.6-3.4-1.4-4.8 -0.7-1.5-1.6-2.4-4.6-1.6 -5.2 2.6-11.5 4.3-17.8 4.6 -0.1-2.2 2-5.6 4.2-7.9 -14.7 4.3-18.7 3.4-25.5 2.9 0.1-1.7 1-4.6 1.5-5.9 -9.7 2.2-21.9 1.6-25.6 0.3 4-5.3 14.4-12.8 17.1-13.6 -2.8-0.3-7.5-2.1-10.2-3.8 3.5-3.1 12-7.4 14.4-7.8 -3.6-1.8-7.7-4.4-10.5-6.9 3.4-3.6 9.9-6.8 12-7.8 -9.2-3.8-17.3-11.3-18.7-13.1 1.7-0.8 4-0.9 5.8-1.1 -5.4-3.6-11.8-9.6-14.5-13.5 1.8-1.3 5.5-1.3 7.5-1.4 -1.8-1.4-9.5-9.6-14.5-18.6 2.1-0.6 4.9-1 7.4-0.8C10.4 92.7 6.8 84.8 5.8 81.3c1.4-0.7 2.7-0.8 4.5-0.9C7.4 76.9 4.8 68.4 5.3 66.4c3.8-0.5 11.1 3 12.1 3.9 -0.2-1-0.1-2.4 0.3-3.3 3.5 0.8 7.8 4.3 9 5.2 -0.2-1.4 0.2-2.9 0.6-4.1 5.8 3.1 10.3 9.7 11.5 11.4 -0.2-2.1 0.6-3.6 1-5.3 3.1 3.9 10.4 12.5 12.8 15 2.4 2.5 5.9 3.9 7.5 2.7 1.7-1.2 2.2-3.9 1.3-6.6 -1-2.7-3.8-8.8-4.3-13.4 1.8 0 4.7 0.8 6.3 1.3 -4.1-8.8-3.9-16.1-4-19.9 4.4 1 6.3 2.6 9.4 4 -1.3-5.5-2.5-16.3 0.2-24.2 5.3 2.3 7.3 5.1 9.3 7.6 -1.3-11.9 0.4-18.8 1.8-22.2 2.2 1.6 3.5 2.4 5.1 4.6l-0.2-0.6c1.6-6.9 4.2-12 7.4-15.5 3.4 3.3 5.8 9 7.3 15.7 1.4-2.1 2.3-2.8 5.1-3.8 1.4 3.4 2.7 10.9 0.9 21.9 2-2.5 4.4-5.4 9.4-7.6 3.3 7.5 0.8 18.4-0.3 24.2 3.1-1.4 5.2-2.6 9.5-3.6 0.2 4.3-0.8 10.3-4.9 19.2 1.7-0.4 4.5-0.9 6.3-0.9 -0.4 4.1-4.4 11.6-4.8 14.5 -0.6 3.8 0.9 4.6 2.1 5.3 1.8 1.1 4.5-0.3 7.5-3.3 2.4-2.5 8.6-10.3 12.5-14.5 0.4 1.7 0.7 2.3 0.9 3.2 2-2.1 6.3-8.8 12-12 0.4 1.1 0.7 2 0.7 3.5 1.2-0.9 5.8-3.8 9.3-4.6 0.3 1.3-0.1 3.1-0.6 5 1-1 8-5.5 13-4.8 0 3.1-2.1 10.1-5 13.7 1.4 0.1 3.5 0 4.9 0.7 -1.4 3.7-5.5 11.5-11.7 17.9 2.5-0.2 5.5 0.5 7.3 1C168.7 106.1 160.4 113.7 158.6 115.1z" class="b"/><rect x="54.5" y="114.8" transform="matrix(0.2899 0.957 -0.957 0.2899 156.756 24.6675)" width="14.5" height="6.3" class="b"/><polygon points="80.3 113.4 79 106.1 74.8 106.9 76.1 114.2 " class="b"/><polygon points="90 163.6 87.9 171.2 92.3 171.2 " class="b"/><polygon points="77.3 148.4 81.7 148.4 79.4 140.8 " class="b"/><rect x="93.4" y="139.2" width="3.9" height="5.9" class="b"/><rect x="91.2" y="105.5" transform="matrix(-1 -0.0034 0.0034 -1 188.2693 225.8444)" width="6.3" height="14.5" class="b"/><path d="M174.7 80.3c-1.3-0.7-2.7-0.4-3.8-0.7 2.5-4.3 4.5-8.8 4.5-12.2 -4 0.7-7.2 1.1-11.9 5.3 0.1-0.7 0.5-3.7 0.4-5 -2.4 0.3-6.1 3.1-8.6 5.1 0.1-0.7-0.1-1.8-0.4-2.8 -3 0.6-10.2 9.9-11.7 11.6 -0.3-1-0.8-1.6-1-3.5 -0.8 1.5-6.6 8.5-13.2 13.5 -2.4 1.8-5.1 1.9-6.9 1.2 -5.2-2.1-0.9-12.5 1-18.3 -1.2 0-4.7 0.6-6.2 0.6 2.4-5.7 4.6-13.8 4.8-17.7 -2.5 0.4-4.4 1.2-8.7 2.6 1.7-11.4 1.3-17.8 0-21.7 -3 1-5.9 3-8.8 6.2 0.6-7.6 0.6-17.4-1.3-21.3 -1.8 0.8-2.6 1.8-4.1 3.7 -0.3-4.8-4.4-12-6.2-13.7 -1.8 2.1-4.8 6.9-6.8 14.1 -1.2-1.7-1.9-2.6-3.8-3.8 -0.9 3.5-2.4 13.2-2.3 20.9 -3.2-2.3-5.5-4.3-8.5-5.4 -0.9 4.6-1.4 10.5-0.7 21.3 -4.3-1.5-5.8-2.1-8.3-2.5 0.1 4 1.4 12.5 3.8 18.2 -1.6-0.5-3.8-1.2-5.6-0.9 0 2.9 2.3 7.8 2.7 11.8 0.3 2.7-0.8 5-2.7 6.1 -1.6 0.9-4.3 0.7-6.3-0.8 -6.6-4.9-11.5-10.8-13.2-13 -0.6 1.2-0.8 2.9-1.1 3.9 -1.6-1.5-8.2-9.5-11-10.5 -0.3 1-0.4 1.9-0.5 3 -3.5-2.5-6.7-4.3-9.1-4.6 -0.1 1.3 0.1 2-0.2 2.8 -3.4-2.5-7.8-3.6-10.3-3.8 -0.2 3.5 1.3 7.8 3.8 12 -1.3 0.1-2.4 0.4-3.6 0.9 0.7 2.5 5.2 12.2 10 18.4 -3.1 0.1-4.3 0.6-6.3 1.2 1.3 2.6 5.8 10.2 13.6 17.6 -2.1 0.4-5.1 0.6-6.3 2.1 2.1 3.1 7.6 8.3 13.3 12.5 -1.2 0.6-3.4 1-4.6 1.9 1.6 1.5 6.7 6.8 16.9 11.6 -4.1 2.7-7.5 4.4-10.7 8.1 1.7 2 5.5 4.6 9 6.6 -3.1 2.1-8.1 4.7-12 7.8 2.1 1.1 6.1 2.8 8.6 3.3 -2.1 1.2-11.6 9-14.3 12.2 3 0.6 14.7 1.2 22.9-0.4 -1.5 2.2-1.5 4.5-1.5 5.8 7.9 1.5 16.7-0.2 26.2-3.1 -1.5 2.2-3.8 4.6-4.8 7 5-0.1 8.8-0.3 12.6-1.9 2.9-1.1 7.3-1.5 8.3 2.3 1.2 4.7 2.5 8 4.1 10.1l2.4-1.9c-1-1.8-1.8-2.8-2.3-4.1 -1.7-4.6-1.7-6.4-0.7-7.4 1-1.1 3-0.9 5.2 0 3.8 1.5 9.7 3.4 16.7 2.7 -1-2.3-2.9-4.8-4.5-6.7 11.4 3 21.4 2.7 25.9 1.9 -0.4-1.5-2.7-5.1-4.6-7.9 6.9 1.4 19.5 0.5 22.4-0.1 -2.7-3.2-12.9-10.4-14.7-11.8 3.7-0.5 6.7-2.3 8.6-3.3 -3-2.7-8.6-5.6-12.1-7.2 3.6-2.1 7.6-5.2 9.7-7.1 -2.4-2.8-6.9-5.6-10.8-7.7 9.3-5 15.9-11 17.5-12.4 -2.4-0.6-3.6-0.7-5-1.2 6.2-5.1 11.5-10 13.6-13.1 -1.9-1.2-4-1.7-6.1-2.2 7.8-7.3 13.5-15.1 14.5-16.8 -2.1-0.6-3.7-1-6.3-1.5C169.2 91.3 173.7 82.7 174.7 80.3zM123.7 135.9v0h6.4v3.3h-6.7v3.3h4.6v3.5h-4.6v4.1h6.7v3.3h-10.5v-17.5H123.7zM107.7 102.3l4.1 0.7 3.1 13.3 2.1-12.3 3.7 0.6 -3.6 21.3 -3.7-0.6 -3.4-14.4 -2.3 13.4 -3.7-0.6L107.7 102.3zM111.6 166.6v3.3h-4.8v6.5l-3.8 0v-17.5l10.3 0v3.5l-6.5 0v4.2H111.6zM106.2 153.5v-17.5h3.8v14.3h5.9v3.2H106.2zM80.9 74.5c0.6 0 4 9.3 10.3 13.6l0.2-9.8c-1.2-1.5-6.2-8.2-6.4-11.4 0 0-0.1-0.5 0.2-0.5 0.6 0 1.5 4.9 6.3 9.7l0.3-19 -3-6.8 0.2-0.1 2.9 4.3 0.3-17.4 0.7 0.4 -0.1 27.4 4.4-5.2 -0.1 0.4 -4.3 6.7 -0.1 21.6c10.3-10.3 9.7-13.3 10.5-13.3 0.3 0 0.2 0.5 0.2 0.5 -1.6 4.5-7.8 11.4-10.7 14.7l0 6.6 -1.5-1.5 0.1-5.4c-3.1-2.6-8.2-6.9-10.3-15.2C80.8 74.8 80.8 74.5 80.9 74.5zM75.2 165.5v3.5h-4.6v4.1h6.7v3.3l-10.4 0v-17.5l10.5 0v3.3h-6.7v3.3H75.2zM63.6 151.1l-0.8 0 -2.6-5.8v8.1h-3.4v-17.5h2.8L63 144.8l3.8-8.8h2.7v17.5h-3.4v-8.1L63.6 151.1zM62.2 173.2v3.2l-9.7 0v-17.5h3.8v14.3H62.2zM76.4 151.6l-0.6 1.9h-3.8l5.4-17.3h4.3l5.4 17.3h-3.8l-0.6-1.9H76.4zM88 158.9h4.3l5.4 17.5h-3.8l-0.6-2.1h-6.2l-0.6 2.1h-3.8L88 158.9zM93.4 148.4v5.1h-3.6v-17.5h8.1l2.9 2.6v7.5l-2.6 2.3H93.4zM98.5 123.6l-8.5 0 -2.3-2.4 0.1-16.7 2.3-2.4 8.5 0 2.3 2.4 0 16.7L98.5 123.6zM79.4 102.4l2.8 2 1.7 9.5 -2.2 3.1 -0.1 0 3.4 6.8 -3.8 0.7 -3.5-7 -1.1 0.2 1.3 7.4 -3.6 0.6 -3.9-21.7L79.4 102.4zM54.6 108.9l8.1-2.5 2.9 1.6 4.9 16 -1.5 3 -8.1 2.5 -2.9-1.6 -4.9-16L54.6 108.9zM26.7 98.2L26.3 97.1c0 0 3.8 1.2 8.3 1.6L13.1 74.6l1 0.3 10.7 11.5c-0.9-3.2-2.2-6.3-2.2-6.3l0.9 0.1c0 0 2 3.4 2.8 7.9l13 14c0.1-0.5 0.2-1.4 0.2-2.6 0-5.4-2.1-9.8-2.1-9.8l0.7-0.1c0 0 2.7 3.6 2.7 9.7 0 1.8-0.2 3.3-0.3 4l2.6 2.8h-2.1l-5.5-6.2C31 99.5 26.7 98.2 26.7 98.2zM42.6 118l-3.8 2 -1.5-3 10.5-5.4 1.5 3 -3.5 1.8 8.1 16.3 -3.2 1.6L42.6 118zM123.1 181.3c0 0.3-1 0.5-1 0.5 -5.5 0.6-8 2-8.5 2.3 2 0.6 3.9 1.1 5.9 1.1 1 0-0.3 0.5-0.3 0.5 -3.4 0.5-9.2-2.6-16.2-2.6 -6.1 0-9.7 3.1-10.5 3.9 2.1 1 3 1.9 3 1.9l-0.8 1c0 0-7-6.3-24.8-5.8 -4.4 0.1-7.8 0.1-10.6-0.1 -0.7 0.5-3.5 2.2-8.6 2.4 0 0-0.3 0-0.3-0.3 0-0.8 3.1-0.3 6.8-2.3 -6.5-0.7-7.9-2.1-9.3-3 0 0-0.2-0.5 0.6-0.4 0 0 3.1 3.2 21.8 2.8 10.5-0.3 17.1 1.6 21 3.3 1.2-1 5.7-4.4 11.8-4.4 3.5 0 6.3 0.8 8.9 1.6 1.1-0.6 5.4-2.6 10.5-2.6C123.2 181.1 123.1 181.3 123.1 181.3zM131.6 173.9l-2.6 2.6h-6.9l-2.6-2.6v-3.2h3.7v2.5h4.9v-2.8l-8.6-4v-4.8l2.6-2.6h6.9l2.3 2.3v3.1h-3.5v-2.1h-4.8v2.2l8.6 4V173.9zM131.7 111l-5.9 17.3 -3.4-1.1 5.8-17.3 -4.1-1.3 1-3.2 11.2 3.6 -1 3.2L131.7 111zM144.1 133.7l-3.1 1.1 -7.5-3.9 -0.9-3.2 7.6-14.9 3.1-1.1 7.5 3.9 0.9 3.2L144.1 133.7zM159.1 94.7c0 0-7 4.4-12.2 5.5 -2.2 2.4-4.7 4.9-7.6 7.7l-0.7-1.3c1.5-1.3 2.9-2.6 4.1-3.9 -0.6-9 2.2-13.6 2.2-13.6l0.8 0.1c0 0-2.5 5.6-1.4 12 5-5.1 8.6-9.7 12.4-14.3 1.2-5.5 2.9-8.1 2.9-8.1h0.6c0 0-1.6 4-2 6.4 3.6-4.2 7.6-8.5 13.4-13.4l-0.3 1.6c-10.8 9.3-15.3 16.6-22.9 25.3 3.9-0.8 10.8-4.7 10.8-4.7V94.7z" class="b"/><rect x="139" y="116" transform="matrix(-0.8896 -0.4567 0.4567 -0.8896 212.3275 297.8277)" width="6.3" height="14.5" class="b"/><polygon points="105.2 209.9 106.9 209.9 106.9 214.3 107.6 214.3 107.6 209.9 109.3 209.9 109.3 209.2 105.2 209.2 " class="b"/><polygon points="112.4 213.5 110.9 209.2 109.9 209.2 109.9 214.3 110.6 214.3 110.6 210.1 112 214.3 112.7 214.3 114.1 210.1 114.1 214.3 114.8 214.3 114.8 209.2 113.8 209.2 " class="b"/></svg>